<svg viewBox="0 0 30 30" fill="none" xmlns="http://www.w3.org/2000/svg">
    <path fill-rule="evenodd" clip-rule="evenodd" d="M1.20383 9.13205C0.899902 10.398 0.899902 11.932 0.899902 15C0.899902 18.0679 0.899902 19.6019 1.20383 20.8678C2.16946 24.89 5.30987 28.0304 9.332 28.996C10.598 29.2999 12.1319 29.2999 15.1999 29.2999C18.2679 29.2999 19.8018 29.2999 21.0678 28.996C25.0899 28.0304 28.2303 24.89 29.196 20.8678C29.4999 19.6019 29.4999 18.0679 29.4999 15C29.4999 11.932 29.4999 10.398 29.196 9.13205C28.2303 5.10991 25.0899 1.96951 21.0678 1.00388C19.8018 0.699951 18.2679 0.699951 15.1999 0.699951C12.1319 0.699951 10.598 0.699951 9.332 1.00388C5.30987 1.96951 2.16946 5.10991 1.20383 9.13205ZM19.3117 10.9675L19.3705 11.2264H22.7469L21.8367 19.711C21.6544 21.4366 20.199 22.7463 18.4635 22.7463H11.9357C10.2002 22.7463 8.74483 21.4366 8.56254 19.7109L7.65244 11.2264H11.0288L11.0878 10.9675C11.0878 8.70058 12.9323 6.85643 15.1995 6.85643C17.4669 6.85643 19.3117 8.70058 19.3117 10.9675ZM12.8826 10.9675L12.8163 11.2264H17.583L17.5168 10.9675C17.5168 9.69012 16.4774 8.65091 15.1995 8.65091C13.9221 8.65091 12.8826 9.69012 12.8826 10.9675Z" fill="black"/>
</svg>
