<svg viewBox="0 0 44 44" fill="none" xmlns="http://www.w3.org/2000/svg">
    <path d="M21.7671 24.2281H22.8847L22.3241 22.9245L21.7671 24.2281Z" fill="black"/>
    <path fill-rule="evenodd" clip-rule="evenodd" d="M29.6361 8.06665H17.4498C11.7093 8.06665 9.60962 10.1663 9.60962 15.9069V28.0933C9.60962 33.8337 11.7093 35.9333 17.4498 35.9333H29.6323C35.3728 35.9333 37.4763 33.8337 37.4763 28.0933V15.9069C37.4763 10.1663 35.3766 8.06665 29.6361 8.06665ZM21.4919 24.8852L21.1605 25.6437H20.4057L22.0108 22.0024H22.6629L24.2616 25.6437H23.4866L23.1592 24.8852H21.4919ZM33.6368 25.6412H34.3663V22.0024H33.6368V25.6412ZM30.7337 24.0776H32.078V23.4145H30.7337V22.6686H32.6852V22.0047H30.0045V25.6434H32.7556V24.9797H30.7337V24.0776ZM27.8353 24.5076L27.0081 22.0023H26.405L25.5778 24.5076L24.7729 22.004H23.9862L25.256 25.6454H25.8679L26.6963 23.2535L27.5243 25.6454H28.1418L29.4084 22.004H28.6419L27.8353 24.5076ZM19.2922 24.0877C19.2922 24.6801 18.998 24.9966 18.4639 24.9966C17.9268 24.9966 17.6311 24.6711 17.6311 24.0625V22.0044H16.8919V24.0877C16.8919 25.1126 17.4612 25.7002 18.4539 25.7002C19.4562 25.7002 20.0311 25.1014 20.0311 24.0576V22.0023H19.2922V24.0877ZM15.1281 22.0024H15.867V25.6457H15.1281V24.1662H13.4587V25.6457H12.7195V22.0024H13.4587V23.4721H15.1281V22.0024ZM18.9045 12.7251C18.9045 15.2827 20.9854 17.3636 23.5429 17.3636C26.1005 17.3636 28.1814 15.2827 28.1814 12.7251H27.5261C27.5261 14.9214 25.7394 16.7083 23.5429 16.7083C21.3465 16.7083 19.5598 14.9214 19.5598 12.7251H18.9045Z" fill="black"/>
</svg>
