<svg width="17" height="16" viewBox="0 0 17 16" fill="none" xmlns="http://www.w3.org/2000/svg">
<path d="M9.39421 1.33398H4.06087C3.70725 1.33398 3.36811 1.47446 3.11806 1.72451C2.86801 1.97456 2.72754 2.3137 2.72754 2.66732V13.334C2.72754 13.6876 2.86801 14.0267 3.11806 14.2768C3.36811 14.5268 3.70725 14.6673 4.06087 14.6673H12.0609C12.4145 14.6673 12.7536 14.5268 13.0037 14.2768C13.2537 14.0267 13.3942 13.6876 13.3942 13.334V5.33398M9.39421 1.33398L13.3942 5.33398M9.39421 1.33398V5.33398H13.3942M10.7275 8.66732H5.39421M10.7275 11.334H5.39421M6.72754 6.00065H5.39421" stroke="#667085" stroke-width="1.5" stroke-linecap="round" stroke-linejoin="round"/>
</svg>
