<svg width="187" height="37" viewBox="0 0 187 37" fill="none" xmlns="http://www.w3.org/2000/svg">
<path fill-rule="evenodd" clip-rule="evenodd" d="M5.34067 15.6825C0.276683 21.1364 0.399911 26.0437 0.399911 26.0437C0.399911 26.0437 2.06698 20.2759 14.3573 14.1382C26.6476 8.0029 26.894 0 26.894 0C20.9651 6.21673 10.4047 10.2286 5.34067 15.6825ZM0 31.8139C0 31.8139 0.069751 27.9997 4.23859 23.7645C7.91684 20.027 16.3126 17.0059 20.5443 12.5683C20.5443 12.5683 19.6259 19.2456 10.8534 23.625C2.08326 28.0043 0 31.8116 0 31.8116V31.8139ZM3.10163 31.0046C5.73826 28.3253 10.6139 27.2089 13.6481 24.0273C13.6481 24.0273 14.0504 28.3904 7.76106 31.5302C1.47409 34.6699 0.399911 36.6864 0.399911 36.6864C0.399911 36.6864 0.111603 34.042 3.09931 31.0046H3.10163Z" fill="white"/>
<path fill-rule="evenodd" clip-rule="evenodd" d="M55.2994 22.1733C56.0532 22.6065 56.453 23.3897 56.453 24.4021V27.8182H53.4669V24.9187C53.4669 23.9188 53.2586 23.873 52.2716 23.873H45.4663V27.8182H42.4635V15.241H51.6385C54.2915 15.241 56.603 16.2117 56.603 19.2071C56.603 20.461 56.1907 21.4859 55.2994 22.1733ZM81.2252 17.9781V20.1694H91.0791V22.8898H81.2252V25.0978H91.4123V27.8182H78.2224V15.241H91.4123V17.9781H81.2252ZM115.885 25.0478H124.872V27.8182H112.882V15.241H115.885V25.0478ZM146.308 15.241H149.311V27.8182H146.308V15.241ZM179.618 20.9734L186.761 27.8182H182.488L177.257 22.8273L174.075 25.3103V27.814H171.072V15.2368H174.075V21.5567L182.146 15.2368H186.94L179.614 20.9693L179.618 20.9734ZM45.4663 17.9989V21.1401H51.0888C52.3466 21.1401 53.4502 21.1318 53.4502 19.5612C53.4502 17.9906 52.3382 17.9989 51.0888 17.9989H45.4663Z" fill="white"/>
</svg>
