<svg width="162" height="44" viewBox="0 0 162 44" fill="none" xmlns="http://www.w3.org/2000/svg">
    <rect x="0.5" y="0.5" width="160.7" height="43" rx="6.75" fill="black"/>
    <rect x="0.5" y="0.5" width="160.7" height="43" rx="6.75" stroke="#A6A6A6"/>
    <path d="M71.2267 22.4386H73.4487V34.5274H71.2267V22.4386Z" fill="white"/>
    <path d="M46.75 28.5669C46.75 25.1692 49.3146 22.441 52.8429 22.441C55.3098 22.441 57.2538 23.6988 58.2665 25.4957L56.3062 26.672C55.5712 25.3161 54.4279 24.5972 52.8594 24.5972C50.6378 24.5972 48.9551 26.3941 48.9551 28.5669C48.9551 30.772 50.6216 32.5365 52.9409 32.5365C54.7216 32.5365 55.9633 31.5235 56.3877 29.9554H52.5818V27.8318H58.7728V28.7141C58.7728 31.9318 56.5023 34.6931 52.9409 34.6931C49.2165 34.6931 46.75 31.8665 46.75 28.5669Z" fill="white"/>
    <path d="M59.7877 29.7597C59.7877 26.5905 62.1074 24.7775 64.5251 24.7775C65.783 24.7775 66.9101 25.2999 67.5963 26.1168V24.9735H69.8014V34.5297H67.5963V33.2877C66.8936 34.17 65.7503 34.7258 64.4924 34.7258C62.1889 34.7258 59.7877 32.8794 59.7877 29.7597ZM67.7105 29.727C67.7105 28.1097 66.4853 26.7865 64.8519 26.7865C63.2184 26.7865 61.9605 28.0774 61.9605 29.727C61.9605 31.3928 63.2184 32.6999 64.8519 32.6999C66.4853 32.6999 67.7105 31.3767 67.7105 29.727Z" fill="white"/>
    <path d="M74.5731 29.7597C74.5731 26.5905 76.8928 24.7775 79.3105 24.7775C80.5684 24.7775 81.6955 25.2999 82.3817 26.1168V24.9735H84.5868V34.5297H82.3817V33.2877C81.6793 34.17 80.536 34.7258 79.2778 34.7258C76.9747 34.7258 74.5731 32.8794 74.5731 29.7597ZM82.4962 29.727C82.4962 28.1097 81.2711 26.7865 79.6379 26.7865C78.0041 26.7865 76.7463 28.0774 76.7463 29.727C76.7463 31.3928 78.0041 32.6999 79.6379 32.6999C81.2707 32.6999 82.4962 31.3767 82.4962 29.727Z" fill="white"/>
    <path d="M88.8852 29.6617L85.4223 24.9735H88.1179L90.29 28.0117L92.4466 24.9735H95.06L91.6294 29.6944L95.2887 34.5297H92.5935L90.2576 31.3443L87.9868 34.5297H85.2912L88.8852 29.6617Z" fill="white"/>
    <path d="M99.4231 34.0558L95.5027 24.9732H97.8547L100.518 31.4093L103.033 24.9732H105.353L99.6518 38.94H97.414L99.4231 34.0558Z" fill="white"/>
    <path d="M109.88 32.553L111.905 30.9522C112.51 31.9813 113.441 32.5692 114.519 32.5692C115.695 32.5692 116.332 31.8021 116.332 30.9684C116.332 29.9558 115.124 29.6455 113.849 29.2534C112.249 28.7468 110.468 28.1263 110.468 25.8554C110.468 23.9444 112.134 22.4413 114.421 22.4413C116.349 22.4413 117.46 23.1767 118.423 24.1731L116.594 25.5614C116.087 24.8101 115.385 24.418 114.438 24.418C113.36 24.418 112.771 25.0062 112.771 25.7736C112.771 26.7212 113.915 27.0318 115.206 27.4566C116.823 27.979 118.652 28.6979 118.652 30.9849C118.652 32.8633 117.149 34.6935 114.536 34.6935C112.379 34.6931 110.958 33.7779 109.88 32.553Z" fill="white"/>
    <path d="M118.833 24.9732H120.466V23.5193L122.688 22V24.9732H124.632V26.9499H122.688V30.5271C122.688 32.1936 122.917 32.455 124.632 32.455V34.5294H124.322C121.366 34.5294 120.467 33.5821 120.467 30.5439V26.9499H118.833L118.833 24.9732Z" fill="white"/>
    <path d="M125.221 29.7597C125.221 26.9826 127.41 24.7771 130.171 24.7771C132.915 24.7771 135.12 26.9826 135.12 29.7597C135.12 32.5203 132.915 34.7258 130.171 34.7258C127.41 34.7258 125.221 32.5203 125.221 29.7597ZM132.948 29.7597C132.948 28.1589 131.722 26.8519 130.171 26.8519C128.586 26.8519 127.393 28.1589 127.393 29.7597C127.393 31.3443 128.586 32.651 130.171 32.651C131.722 32.651 132.948 31.3443 132.948 29.7597Z" fill="white"/>
    <path d="M138.438 24.9732V26.3944C138.879 25.4468 139.679 24.9732 140.888 24.9732C141.574 24.9732 142.146 25.1366 142.571 25.3815L141.737 27.4724C141.41 27.2602 141.035 27.0968 140.414 27.0968C139.14 27.0968 138.454 27.783 138.454 29.4326V34.5294H136.249V24.9732H138.438Z" fill="white"/>
    <path d="M142.817 29.7759C142.817 26.9826 144.989 24.7771 147.783 24.7771C150.625 24.7771 152.7 26.8681 152.7 29.6944V30.5271H144.924C145.218 31.8672 146.296 32.7817 147.865 32.7817C149.09 32.7817 150.054 32.1121 150.511 31.0991L152.324 32.1444C151.491 33.6805 149.988 34.7255 147.865 34.7255C144.859 34.7255 142.817 32.5365 142.817 29.7759ZM145.039 28.6814H150.462C150.135 27.4074 149.155 26.7212 147.783 26.7212C146.459 26.7212 145.431 27.5216 145.039 28.6814Z" fill="white"/>
    <path d="M51.3686 15.3715H48.2921L47.7254 16.9401H46.7539L49.3041 9.92693H50.3667L52.9069 16.9401H51.9353L51.3686 15.3715ZM51.1055 14.6226L49.8304 11.0604L48.5553 14.6226H51.1055Z" fill="white"/>
    <path d="M55.4756 16.09L57.196 11.3943H58.1776L56.0018 16.9401H54.9291L52.7533 11.3943H53.7451L55.4756 16.09Z" fill="white"/>
    <path d="M58.841 14.147C58.841 13.5802 58.9557 13.0844 59.1851 12.6593C59.4144 12.2275 59.7282 11.8936 60.1262 11.6574C60.531 11.4213 60.9797 11.3032 61.4722 11.3032C61.9579 11.3032 62.3796 11.4078 62.7372 11.617C63.0948 11.8261 63.3612 12.0892 63.5367 12.4063V11.3943H64.4677V16.9401H63.5367V15.9078C63.3545 16.2317 63.0813 16.5016 62.7169 16.7174C62.3594 16.9266 61.9411 17.0312 61.4621 17.0312C60.9696 17.0312 60.5243 16.9097 60.1262 16.6668C59.7282 16.424 59.4144 16.0833 59.1851 15.6447C58.9557 15.2062 58.841 14.7069 58.841 14.147ZM63.5367 14.1571C63.5367 13.7388 63.4523 13.3745 63.2837 13.0641C63.115 12.7538 62.8856 12.5176 62.5955 12.3557C62.3121 12.1871 61.9984 12.1027 61.6543 12.1027C61.3103 12.1027 60.9965 12.1837 60.7132 12.3456C60.4298 12.5075 60.2038 12.7437 60.0351 13.054C59.8665 13.3644 59.7821 13.7287 59.7821 14.147C59.7821 14.572 59.8665 14.9431 60.0351 15.2602C60.2038 15.5705 60.4298 15.81 60.7132 15.9787C60.9965 16.1406 61.3103 16.2216 61.6543 16.2216C61.9984 16.2216 62.3121 16.1406 62.5955 15.9787C62.8856 15.81 63.115 15.5705 63.2837 15.2602C63.4523 14.9431 63.5367 14.5754 63.5367 14.1571Z" fill="white"/>
    <path d="M66.2972 10.4936C66.1218 10.4936 65.9734 10.4329 65.8519 10.3115C65.7305 10.19 65.6698 10.0416 65.6698 9.86621C65.6698 9.6908 65.7305 9.54237 65.8519 9.42093C65.9734 9.29949 66.1218 9.23877 66.2972 9.23877C66.4659 9.23877 66.6076 9.29949 66.7222 9.42093C66.8437 9.54237 66.9044 9.6908 66.9044 9.86621C66.9044 10.0416 66.8437 10.19 66.7222 10.3115C66.6076 10.4329 66.4659 10.4936 66.2972 10.4936ZM66.7425 11.3943V16.9401H65.8216V11.3943H66.7425Z" fill="white"/>
    <path d="M69.0306 9.45129V16.9401H68.1096V9.45129H69.0306Z" fill="white"/>
    <path d="M70.256 14.147C70.256 13.5802 70.3707 13.0844 70.6001 12.6593C70.8295 12.2275 71.1432 11.8936 71.5413 11.6574C71.9461 11.4213 72.3947 11.3032 72.8872 11.3032C73.373 11.3032 73.7946 11.4078 74.1522 11.617C74.5098 11.8261 74.7763 12.0892 74.9517 12.4063V11.3943H75.8827V16.9401H74.9517V15.9078C74.7695 16.2317 74.4963 16.5016 74.132 16.7174C73.7744 16.9266 73.3561 17.0312 72.8771 17.0312C72.3846 17.0312 71.9393 16.9097 71.5413 16.6668C71.1432 16.424 70.8295 16.0833 70.6001 15.6447C70.3707 15.2062 70.256 14.7069 70.256 14.147ZM74.9517 14.1571C74.9517 13.7388 74.8674 13.3745 74.6987 13.0641C74.53 12.7538 74.3006 12.5176 74.0105 12.3557C73.7272 12.1871 73.4135 12.1027 73.0694 12.1027C72.7253 12.1027 72.4116 12.1837 72.1282 12.3456C71.8449 12.5075 71.6188 12.7437 71.4502 13.054C71.2815 13.3644 71.1972 13.7287 71.1972 14.147C71.1972 14.572 71.2815 14.9431 71.4502 15.2602C71.6188 15.5705 71.8449 15.81 72.1282 15.9787C72.4116 16.1406 72.7253 16.2216 73.0694 16.2216C73.4135 16.2216 73.7272 16.1406 74.0105 15.9787C74.3006 15.81 74.53 15.5705 74.6987 15.2602C74.8674 14.9431 74.9517 14.5754 74.9517 14.1571Z" fill="white"/>
    <path d="M78.4611 12.4266C78.65 12.096 78.9266 11.8261 79.291 11.617C79.6553 11.4078 80.0702 11.3032 80.5357 11.3032C81.035 11.3032 81.4836 11.4213 81.8817 11.6574C82.2797 11.8936 82.5935 12.2275 82.8228 12.6593C83.0522 13.0844 83.1669 13.5802 83.1669 14.147C83.1669 14.7069 83.0522 15.2062 82.8228 15.6447C82.5935 16.0833 82.2764 16.424 81.8716 16.6668C81.4735 16.9097 81.0282 17.0312 80.5357 17.0312C80.0567 17.0312 79.635 16.9266 79.2707 16.7174C78.9132 16.5083 78.6433 16.2418 78.4611 15.918V16.9401H77.5402V9.45129H78.4611V12.4266ZM82.2258 14.147C82.2258 13.7287 82.1414 13.3644 81.9728 13.054C81.8041 12.7437 81.5747 12.5075 81.2846 12.3456C81.0012 12.1837 80.6875 12.1027 80.3434 12.1027C80.0061 12.1027 79.6924 12.1871 79.4023 12.3557C79.1189 12.5176 78.8895 12.7572 78.7141 13.0742C78.5455 13.3846 78.4611 13.7455 78.4611 14.1571C78.4611 14.5754 78.5455 14.9431 78.7141 15.2602C78.8895 15.5705 79.1189 15.81 79.4023 15.9787C79.6924 16.1406 80.0061 16.2216 80.3434 16.2216C80.6875 16.2216 81.0012 16.1406 81.2846 15.9787C81.5747 15.81 81.8041 15.5705 81.9728 15.2602C82.1414 14.9431 82.2258 14.572 82.2258 14.147Z" fill="white"/>
    <path d="M85.3 9.45129V16.9401H84.3791V9.45129H85.3Z" fill="white"/>
    <path d="M92.0308 13.9547C92.0308 14.1301 92.0207 14.3156 92.0004 14.5113H87.5679C87.6016 15.0578 87.7871 15.4862 88.1245 15.7965C88.4685 16.1001 88.8835 16.2519 89.3692 16.2519C89.7673 16.2519 90.0979 16.1609 90.361 15.9787C90.6308 15.7898 90.8197 15.5402 90.9277 15.2298H91.9195C91.771 15.7628 91.4742 16.198 91.0289 16.5353C90.5836 16.8659 90.0304 17.0312 89.3692 17.0312C88.843 17.0312 88.3707 16.9131 87.9524 16.677C87.5409 16.4408 87.217 16.1069 86.9809 15.6751C86.7448 15.2366 86.6267 14.7306 86.6267 14.1571C86.6267 13.5836 86.7414 13.081 86.9708 12.6492C87.2002 12.2174 87.5206 11.8868 87.9322 11.6574C88.3505 11.4213 88.8295 11.3032 89.3692 11.3032C89.8955 11.3032 90.361 11.4179 90.7658 11.6473C91.1706 11.8767 91.4809 12.1938 91.6968 12.5986C91.9195 12.9967 92.0308 13.4487 92.0308 13.9547ZM91.0795 13.7624C91.0795 13.4116 91.0019 13.1114 90.8467 12.8617C90.6916 12.6054 90.479 12.4131 90.2092 12.2849C89.9461 12.15 89.6526 12.0825 89.3287 12.0825C88.8632 12.0825 88.4652 12.2309 88.1346 12.5278C87.8107 12.8246 87.6252 13.2362 87.578 13.7624H91.0795Z" fill="white"/>
    <path d="M98.5654 17.0312C98.046 17.0312 97.5737 16.9131 97.1487 16.677C96.7304 16.4408 96.3998 16.1069 96.1569 15.6751C95.9208 15.2366 95.8027 14.7306 95.8027 14.1571C95.8027 13.5904 95.9241 13.0911 96.167 12.6593C96.4166 12.2208 96.754 11.8868 97.179 11.6574C97.604 11.4213 98.0797 11.3032 98.6059 11.3032C99.1322 11.3032 99.6078 11.4213 100.033 11.6574C100.458 11.8868 100.792 12.2174 101.035 12.6492C101.284 13.081 101.409 13.5836 101.409 14.1571C101.409 14.7306 101.281 15.2366 101.025 15.6751C100.775 16.1069 100.434 16.4408 100.002 16.677C99.5707 16.9131 99.0917 17.0312 98.5654 17.0312ZM98.5654 16.2216C98.896 16.2216 99.2064 16.144 99.4965 15.9888C99.7866 15.8336 100.019 15.6009 100.195 15.2905C100.377 14.9802 100.468 14.6024 100.468 14.1571C100.468 13.7118 100.38 13.334 100.205 13.0236C100.029 12.7133 99.8001 12.4839 99.5167 12.3355C99.2334 12.1803 98.9264 12.1027 98.5958 12.1027C98.2585 12.1027 97.9481 12.1803 97.6648 12.3355C97.3882 12.4839 97.1655 12.7133 96.9968 13.0236C96.8282 13.334 96.7439 13.7118 96.7439 14.1571C96.7439 14.6091 96.8248 14.9903 96.9867 15.3007C97.1554 15.611 97.378 15.8438 97.6546 15.9989C97.9313 16.1474 98.2349 16.2216 98.5654 16.2216Z" fill="white"/>
    <path d="M105.524 11.2931C106.199 11.2931 106.746 11.4989 107.164 11.9104C107.582 12.3152 107.791 12.9022 107.791 13.6713V16.9401H106.881V13.8029C106.881 13.2497 106.742 12.828 106.466 12.5379C106.189 12.241 105.811 12.0926 105.332 12.0926C104.846 12.0926 104.458 12.2444 104.168 12.548C103.885 12.8516 103.743 13.2935 103.743 13.8737V16.9401H102.822V11.3943H103.743V12.1837C103.925 11.9003 104.172 11.6811 104.482 11.5259C104.799 11.3707 105.147 11.2931 105.524 11.2931Z" fill="white"/>
    <rect x="9.8999" y="7.69995" width="28.6" height="28.6" rx="10" fill="url(#paint0_angular_368_47419)"/>
    <path fill-rule="evenodd" clip-rule="evenodd" d="M28.3706 18.2264L28.3118 17.9675C28.3118 15.7006 26.4671 13.8564 24.1997 13.8564C21.9324 13.8564 20.0879 15.7006 20.0879 17.9675L20.029 18.2264H16.6526L17.5627 26.7109C17.745 28.4366 19.2004 29.7463 20.9359 29.7463H27.4637C29.1991 29.7463 30.6546 28.4366 30.8368 26.711L31.747 18.2264H28.3706ZM21.8165 18.2264L21.8828 17.9675C21.8828 16.6901 22.9222 15.6509 24.1997 15.6509C25.4775 15.6509 26.5169 16.6901 26.5169 17.9675L26.5831 18.2264H21.8165Z" fill="white"/>
    <defs>
        <radialGradient id="paint0_angular_368_47419" cx="0" cy="0" r="1" gradientUnits="userSpaceOnUse" gradientTransform="translate(24.1999 22) rotate(88.8309) scale(14.303)">
            <stop offset="0.000415415" stop-color="#F4605E"/>
            <stop offset="0.0642377" stop-color="#E94B80"/>
            <stop offset="0.128396" stop-color="#DE33A4"/>
            <stop offset="0.186654" stop-color="#D41AC8"/>
            <stop offset="0.250949" stop-color="#CB06E5"/>
            <stop offset="0.281719" stop-color="#C902EC"/>
            <stop offset="0.316858" stop-color="#CB04E5"/>
            <stop offset="0.371347" stop-color="#D108D3"/>
            <stop offset="0.43351" stop-color="#D80DBA"/>
            <stop offset="0.504024" stop-color="#E1139E"/>
            <stop offset="0.59576" stop-color="#EC1E7B"/>
            <stop offset="0.673288" stop-color="#F22A65"/>
            <stop offset="0.713795" stop-color="#F5355B"/>
            <stop offset="0.754495" stop-color="#F74452"/>
            <stop offset="0.818581" stop-color="#F75651"/>
            <stop offset="0.878478" stop-color="#F76051"/>
            <stop offset="0.938046" stop-color="#F76551"/>
        </radialGradient>
    </defs>
</svg>
