<svg width="147" height="44" viewBox="0 0 147 44" fill="none" xmlns="http://www.w3.org/2000/svg">
    <rect x="0.5" y="0.5" width="145.3" height="43" rx="6.25" stroke="white"/>
    <path d="M49.9359 27.9528H53.7812L52.4046 24.2675C52.2151 23.7584 52.0288 23.1962 51.8452 22.5803C51.6795 23.1251 51.4988 23.6814 51.3034 24.2498L49.9359 27.9528ZM54.4382 29.7022H49.2876L48.0269 33.1477H45.7623L50.8062 20.2804H52.9464L58.1058 33.1477H55.726L54.4382 29.7022Z" fill="white"/>
    <path d="M64.7859 30.8078C65.2329 30.2071 65.4564 29.3292 65.4564 28.1748C65.4564 27.1035 65.2714 26.3262 64.9015 25.8436C64.5313 25.3612 64.0385 25.12 63.4228 25.12C62.9966 25.12 62.6029 25.2209 62.2418 25.422C61.8807 25.6233 61.5372 25.8925 61.2116 26.23V31.3629C61.4307 31.4693 61.6854 31.5538 61.9755 31.6157C62.2656 31.6782 62.5528 31.7093 62.8367 31.7093C63.6894 31.7093 64.3389 31.4086 64.7859 30.8078ZM59.0184 25.9104C59.0184 25.2 58.9946 24.4184 58.9474 23.5661H61.0075C61.0843 23.9627 61.1377 24.3684 61.1673 24.7826C62.0198 23.8533 62.9966 23.3883 64.0977 23.3883C64.7372 23.3883 65.3292 23.5497 65.8739 23.8722C66.4183 24.195 66.858 24.7041 67.1924 25.3996C67.5271 26.0954 67.6943 26.9791 67.6943 28.0505C67.6943 29.1694 67.5033 30.1256 67.1214 30.9188C66.7395 31.7122 66.2053 32.3129 65.5186 32.7216C64.8319 33.1299 64.0385 33.3343 63.1388 33.3343C62.4873 33.3343 61.8449 33.2246 61.2116 33.0058V36.9661L59.0184 37.1526V25.9104Z" fill="white"/>
    <path d="M74.7929 30.8078C75.24 30.2071 75.4635 29.3292 75.4635 28.1748C75.4635 27.1035 75.2784 26.3262 74.9085 25.8436C74.5383 25.3612 74.0455 25.12 73.4298 25.12C73.0036 25.12 72.61 25.2209 72.2489 25.422C71.8875 25.6233 71.5443 25.8925 71.2187 26.23V31.3629C71.4378 31.4693 71.6921 31.5538 71.9825 31.6157C72.2723 31.6782 72.5595 31.7093 72.8437 31.7093C73.6962 31.7093 74.3459 31.4086 74.7929 30.8078ZM69.0251 25.9104C69.0251 25.2 69.0014 24.4184 68.9541 23.5661H71.0145C71.0914 23.9627 71.1448 24.3684 71.1744 24.7826C72.0268 23.8533 73.0036 23.3883 74.1048 23.3883C74.7442 23.3883 75.3359 23.5497 75.8809 23.8722C76.4253 24.195 76.865 24.7041 77.1997 25.3996C77.5338 26.0954 77.7014 26.9791 77.7014 28.0505C77.7014 29.1694 77.5101 30.1256 77.1285 30.9188C76.7465 31.7122 76.2121 32.3129 75.5257 32.7216C74.8387 33.1299 74.0455 33.3343 73.1456 33.3343C72.4944 33.3343 71.852 33.2246 71.2187 33.0058V36.9661L69.0251 37.1526V25.9104Z" fill="white"/>
    <path d="M81.7306 32.5394C80.7831 32.0158 80.0551 31.2651 79.5461 30.2883C79.0366 29.3115 78.7823 28.157 78.7823 26.825C78.7823 25.3807 79.0753 24.1535 79.6614 23.144C80.2475 22.1349 81.0453 21.3771 82.0544 20.8708C83.0641 20.3647 84.1961 20.1116 85.4515 20.1116C86.1913 20.1116 86.8974 20.193 87.5694 20.3558C88.2411 20.5187 88.8671 20.742 89.4476 21.0263L88.8879 22.7134C87.7216 22.157 86.6087 21.8787 85.5492 21.8787C84.6551 21.8787 83.8722 22.0697 83.2005 22.4516C82.5285 22.8335 82.0057 23.3944 81.6329 24.1344C81.2598 24.8745 81.0735 25.7683 81.0735 26.8161C81.0735 27.734 81.217 28.5478 81.5038 29.2582C81.7913 29.9686 82.2442 30.5312 82.8629 30.9454C83.4815 31.3599 84.2615 31.5669 85.2028 31.5669C85.629 31.5669 86.0552 31.5315 86.4814 31.4605C86.9076 31.3896 87.3074 31.286 87.6803 31.1496V28.5478H84.7056V26.8428H89.8116V32.2598C89.0774 32.603 88.3062 32.8668 87.4984 33.0501C86.69 33.2334 85.8865 33.3252 85.0872 33.3252C83.7965 33.3252 82.6775 33.0636 81.7306 32.5394Z" fill="white"/>
    <path d="M96.2919 31.3716C96.7475 31.1528 97.1206 30.8802 97.4107 30.5547V28.7787C96.8126 28.7137 96.3242 28.6811 95.9455 28.6811C95.0397 28.6811 94.4134 28.8274 94.0676 29.1207C93.7209 29.4133 93.5478 29.8088 93.5478 30.306C93.5478 30.78 93.6737 31.1305 93.9253 31.3584C94.177 31.5863 94.5187 31.7002 94.9508 31.7002C95.3888 31.7002 95.8358 31.5908 96.2919 31.3716ZM97.6061 33.1477C97.529 32.7746 97.4785 32.3516 97.455 31.8779C97.1177 32.2807 96.6783 32.6224 96.1362 32.9037C95.595 33.1848 94.9834 33.3252 94.3026 33.3252C93.752 33.3252 93.2504 33.2173 92.7972 33.0011C92.3449 32.7852 91.9849 32.4595 91.7186 32.0242C91.4522 31.5893 91.3188 31.0581 91.3188 30.4303C91.3188 29.501 91.6532 28.7594 92.3223 28.2057C92.9914 27.6523 94.1072 27.3756 95.6701 27.3756C96.2562 27.3756 96.8364 27.4172 97.4107 27.4999V27.3135C97.4107 26.467 97.23 25.8705 96.8689 25.5239C96.5078 25.1779 95.9898 25.0047 95.3151 25.0047C94.8473 25.0047 94.3472 25.0728 93.8142 25.2088C93.2815 25.3452 92.8136 25.5079 92.4111 25.6973L92.0647 24.0989C92.4555 23.9211 92.9705 23.7584 93.61 23.6104C94.2495 23.4626 94.9241 23.3883 95.6346 23.3883C96.4635 23.3883 97.1679 23.5141 97.7481 23.7656C98.3283 24.0174 98.7812 24.4497 99.1068 25.0622C99.4324 25.6752 99.5952 26.4996 99.5952 27.5354V31.3449C99.5952 31.7418 99.6186 32.3429 99.6662 33.1477H97.6061Z" fill="white"/>
    <path d="M101.278 30.8477V19.5255L103.462 19.3479V30.457C103.462 30.8656 103.532 31.154 103.671 31.3229C103.81 31.4913 104.031 31.5761 104.333 31.5761C104.469 31.5761 104.661 31.5436 104.91 31.4784L105.167 33.0501C104.96 33.1331 104.707 33.1997 104.408 33.2498C104.109 33.3 103.826 33.3252 103.56 33.3252C102.038 33.3252 101.278 32.4995 101.278 30.8477Z" fill="white"/>
    <path d="M106.739 30.8477V19.5255L108.924 19.3479V30.457C108.924 30.8656 108.993 31.154 109.132 31.3229C109.272 31.4913 109.492 31.5761 109.794 31.5761C109.93 31.5761 110.123 31.5436 110.371 31.4784L110.629 33.0501C110.422 33.1331 110.168 33.1997 109.87 33.2498C109.571 33.3 109.288 33.3252 109.021 33.3252C107.5 33.3252 106.739 32.4995 106.739 30.8477Z" fill="white"/>
    <path d="M117.474 27.2425C117.43 26.4787 117.239 25.9061 116.896 25.5239C116.553 25.1424 116.093 24.9512 115.521 24.9512C114.963 24.9512 114.5 25.1439 114.13 25.5285C113.761 25.9135 113.517 26.4847 113.406 27.2425H117.474ZM119.613 28.6366H113.344C113.444 30.6436 114.4 31.647 116.213 31.647C116.662 31.647 117.122 31.5923 117.594 31.4828C118.064 31.3731 118.515 31.2268 118.947 31.0431L119.428 32.5438C118.354 33.065 117.151 33.3252 115.814 33.3252C114.793 33.3252 113.937 33.1331 113.238 32.7482C112.537 32.3634 112.012 31.8099 111.66 31.0874C111.309 30.3655 111.133 29.4952 111.133 28.4768C111.133 27.4172 111.319 26.5053 111.693 25.7417C112.065 24.9779 112.584 24.3949 113.25 23.9923C113.916 23.5898 114.685 23.3883 115.556 23.3883C116.462 23.3883 117.216 23.6001 117.823 24.0235C118.43 24.4465 118.879 25.0106 119.173 25.7149C119.466 26.4198 119.613 27.198 119.613 28.0505V28.6366Z" fill="white"/>
    <path d="M121.273 25.9725C121.273 25.4458 121.246 24.6437 121.199 23.5661H123.253C123.288 23.8325 123.32 24.1507 123.355 24.5208C123.388 24.8906 123.408 25.1911 123.42 25.422C123.675 25.0017 123.925 24.6479 124.171 24.3609C124.417 24.0735 124.705 23.8399 125.033 23.6591C125.362 23.4786 125.734 23.3883 126.157 23.3883C126.494 23.3883 126.782 23.424 127.025 23.495L126.749 25.3954C126.538 25.3303 126.301 25.2976 126.039 25.2976C125.526 25.2976 125.074 25.4294 124.69 25.6929C124.306 25.9561 123.895 26.3898 123.455 26.9937V33.1477H121.273V25.9725Z" fill="white"/>
    <path d="M128.257 37.0682C127.937 37.0122 127.673 36.9485 127.468 36.8775L127.867 35.2791C128.014 35.3202 128.201 35.3603 128.427 35.3988C128.65 35.4376 128.864 35.4566 129.067 35.4566C130.038 35.4566 130.765 34.8318 131.249 33.5828L131.393 33.2276L127.858 23.5661H130.211L131.988 28.9651C132.276 29.8889 132.463 30.5963 132.546 31.0874C132.713 30.3949 132.906 29.7022 133.132 29.0096L134.936 23.5661H137.145L133.622 33.2722C133.291 34.1897 132.93 34.9295 132.546 35.4921C132.161 36.0544 131.707 36.4718 131.185 36.7443C130.659 37.0163 130.029 37.1526 129.287 37.1526C128.92 37.1526 128.577 37.1248 128.257 37.0682Z" fill="white"/>
    <path d="M45.7527 8.03127H49.6622L49.5522 8.97551H46.8984V10.8042H49.4009V11.6888H46.8984V13.7146H49.6942L49.598 14.6679H45.7527V8.03127Z" fill="white"/>
    <path d="M52.3571 11.2808L50.2946 8.03127H51.5962L52.9942 10.4193L54.4655 8.03127H55.7304L53.6862 11.2395L55.9 14.6679H54.58L52.9989 12.0555L51.39 14.6679H50.1251L52.3571 11.2808Z" fill="white"/>
    <path d="M59.6171 10.9942C59.8614 10.7731 59.9837 10.4604 59.9837 10.057C59.9837 9.64754 59.8591 9.35303 59.6103 9.17263C59.3613 8.99223 58.9952 8.90218 58.5127 8.90218H57.8893V11.2579C58.1765 11.3037 58.3965 11.3266 58.5493 11.3266C59.0166 11.3266 59.3727 11.216 59.6171 10.9942ZM56.7433 8.03127H58.5309C59.371 8.03127 60.0143 8.20258 60.4604 8.54461C60.9066 8.88693 61.1295 9.38178 61.1295 10.0295C61.1295 10.4695 61.0295 10.854 60.8294 11.1823C60.6291 11.5108 60.3504 11.7631 59.9928 11.9385C59.6355 12.1145 59.2243 12.2022 58.7599 12.2022C58.5065 12.2022 58.2161 12.1717 57.8893 12.1104V14.6679H56.7433V8.03127Z" fill="white"/>
    <path d="M62.2618 8.03127H63.4075V13.687H66.1528L66.0566 14.6679H62.2618V8.03127Z" fill="white"/>
    <path d="M70.8646 13.5289C71.1855 13.3136 71.4252 13.0173 71.5842 12.6398C71.7432 12.2626 71.8227 11.8308 71.8227 11.3451C71.8227 10.8684 71.7523 10.4439 71.6117 10.0708C71.4709 9.69798 71.2466 9.40113 70.938 9.17937C70.6294 8.95791 70.2322 8.84702 69.7462 8.84702C69.2818 8.84702 68.8876 8.95937 68.5637 9.18406C68.2399 9.40846 67.997 9.70972 67.8351 10.0869C67.6732 10.4645 67.5922 10.8807 67.5922 11.336C67.5922 11.8156 67.6685 12.245 67.8213 12.6237C67.9738 13.0027 68.2076 13.3022 68.5227 13.5222C68.8371 13.7422 69.2267 13.8522 69.6913 13.8522C70.1527 13.8522 70.5437 13.7442 70.8646 13.5289ZM67.8946 14.3426C67.4089 14.0645 67.0375 13.6741 66.7809 13.1713C66.5242 12.6689 66.396 12.0845 66.396 11.4184C66.396 10.7188 66.5324 10.1069 66.8061 9.58271C67.0795 9.05881 67.4737 8.65401 67.9885 8.36801C68.5033 8.0826 69.1105 7.93945 69.8104 7.93945C70.4795 7.93945 71.0556 8.07791 71.5384 8.35423C72.0209 8.63113 72.3894 9.0198 72.6428 9.52081C72.8966 10.0221 73.0233 10.6026 73.0233 11.2626C73.0233 11.9745 72.8851 12.5935 72.6085 13.1188C72.3319 13.6442 71.938 14.0493 71.4261 14.3332C70.9142 14.6175 70.3132 14.7596 69.6227 14.7596C68.9565 14.7596 68.3804 14.6207 67.8946 14.3426Z" fill="white"/>
    <path d="M76.0989 11.1708C76.3767 11.1708 76.6228 11.1168 76.8366 11.008C77.0505 10.8998 77.2171 10.747 77.3362 10.5498C77.4556 10.3527 77.5151 10.1242 77.5151 9.86461C77.5151 9.53167 77.4095 9.28791 77.1989 9.13362C76.988 8.97933 76.6809 8.90218 76.2776 8.90218H75.448V11.1708H76.0989ZM74.3022 8.03127H76.3784C77.1361 8.03127 77.7099 8.18263 78.0995 8.48506C78.489 8.78749 78.6838 9.22015 78.6838 9.78218C78.6838 10.1336 78.6134 10.4431 78.4729 10.7103C78.3323 10.9778 78.1581 11.1955 77.9504 11.3632C77.7425 11.5313 77.5289 11.6566 77.3089 11.7393L79.3484 14.6679H78.0194L76.2913 12.037H75.448V14.6679H74.3022V8.03127Z" fill="white"/>
    <path d="M80.256 8.03127H84.1656L84.0556 8.97551H81.4017V10.8042H83.9042V11.6888H81.4017V13.7146H84.1975L84.1013 14.6679H80.256V8.03127Z" fill="white"/>
    <path d="M88.4189 8.03127H89.5647V14.6679H88.4189V8.03127Z" fill="white"/>
    <path d="M92.5942 8.9893H90.5362L90.6371 8.03127H95.8027L95.6971 8.9893H93.7399V14.6679H92.5942V8.9893Z" fill="white"/>
    <path d="M103.746 13.5289C104.066 13.3136 104.306 13.0173 104.465 12.6398C104.624 12.2626 104.703 11.8308 104.703 11.3451C104.703 10.8684 104.633 10.4439 104.493 10.0708C104.352 9.69798 104.127 9.40113 103.819 9.17937C103.51 8.95791 103.113 8.84702 102.627 8.84702C102.162 8.84702 101.768 8.95937 101.445 9.18406C101.121 9.40846 100.878 9.70972 100.716 10.0869C100.554 10.4645 100.473 10.8807 100.473 11.336C100.473 11.8156 100.549 12.245 100.702 12.6237C100.855 13.0027 101.089 13.3022 101.403 13.5222C101.718 13.7422 102.108 13.8522 102.572 13.8522C103.033 13.8522 103.425 13.7442 103.746 13.5289ZM100.776 14.3426C100.29 14.0645 99.9184 13.6741 99.6618 13.1713C99.4051 12.6689 99.2766 12.0845 99.2766 11.4184C99.2766 10.7188 99.4133 10.1069 99.687 9.58271C99.9601 9.05881 100.354 8.65401 100.869 8.36801C101.384 8.0826 101.991 7.93945 102.691 7.93945C103.36 7.93945 103.936 8.07791 104.419 8.35423C104.902 8.63113 105.27 9.0198 105.524 9.52081C105.777 10.0221 105.904 10.6026 105.904 11.2626C105.904 11.9745 105.766 12.5935 105.489 13.1188C105.213 13.6442 104.819 14.0493 104.307 14.3332C103.795 14.6175 103.194 14.7596 102.503 14.7596C101.837 14.7596 101.261 14.6207 100.776 14.3426Z" fill="white"/>
    <path d="M107.183 8.03127H108.498L111.781 13.1737C111.751 12.685 111.739 12.2342 111.739 11.8217V8.03127H112.801V14.6679H111.528L108.196 9.44279C108.229 10.0359 108.246 10.5613 108.246 11.0195V14.6679H107.183V8.03127Z" fill="white"/>
    <path d="M21.7671 24.2281H22.8847L22.3241 22.9245L21.7671 24.2281Z" fill="white"/>
    <path fill-rule="evenodd" clip-rule="evenodd" d="M29.6361 8.06665H17.4498C11.7093 8.06665 9.60962 10.1663 9.60962 15.9069V28.0933C9.60962 33.8337 11.7093 35.9333 17.4498 35.9333H29.6323C35.3728 35.9333 37.4763 33.8337 37.4763 28.0933V15.9069C37.4763 10.1663 35.3766 8.06665 29.6361 8.06665ZM21.4919 24.8852L21.1605 25.6437H20.4057L22.0108 22.0024H22.6629L24.2616 25.6437H23.4866L23.1592 24.8852H21.4919ZM33.6368 25.6412H34.3663V22.0024H33.6368V25.6412ZM30.7337 24.0776H32.078V23.4145H30.7337V22.6686H32.6852V22.0047H30.0045V25.6434H32.7556V24.9797H30.7337V24.0776ZM27.8353 24.5076L27.0081 22.0023H26.405L25.5778 24.5076L24.7729 22.004H23.9862L25.256 25.6454H25.8679L26.6963 23.2535L27.5243 25.6454H28.1418L29.4084 22.004H28.6419L27.8353 24.5076ZM19.2922 24.0877C19.2922 24.6801 18.998 24.9966 18.4639 24.9966C17.9268 24.9966 17.6311 24.6711 17.6311 24.0625V22.0044H16.8919V24.0877C16.8919 25.1126 17.4612 25.7002 18.4539 25.7002C19.4562 25.7002 20.0311 25.1014 20.0311 24.0576V22.0023H19.2922V24.0877ZM15.1281 22.0024H15.867V25.6457H15.1281V24.1662H13.4587V25.6457H12.7195V22.0024H13.4587V23.4721H15.1281V22.0024ZM18.9045 12.7251C18.9045 15.2827 20.9854 17.3636 23.5429 17.3636C26.1005 17.3636 28.1814 15.2827 28.1814 12.7251H27.5261C27.5261 14.9214 25.7394 16.7083 23.5429 16.7083C21.3465 16.7083 19.5598 14.9214 19.5598 12.7251H18.9045Z" fill="white"/>
</svg>
