<svg width="149" height="44" viewBox="0 0 149 44" fill="none" xmlns="http://www.w3.org/2000/svg">
    <rect x="0.5" y="0.5" width="147.5" height="43" rx="4.5" fill="black"/>
    <rect x="0.5" y="0.5" width="147.5" height="43" rx="4.5" stroke="#A6A6A6"/>
    <path d="M74.9496 23.9264C72.3624 23.9264 70.2537 25.8943 70.2537 28.6047C70.2537 31.2986 72.3624 33.283 74.9496 33.283C77.5379 33.283 79.6466 31.2986 79.6466 28.6047C79.6455 25.8943 77.5368 23.9264 74.9496 23.9264ZM74.9496 31.4416C73.5317 31.4416 72.3096 30.2723 72.3096 28.6058C72.3096 26.9217 73.5328 25.77 74.9496 25.77C76.3675 25.77 77.5896 26.9217 77.5896 28.6058C77.5896 30.2712 76.3675 31.4416 74.9496 31.4416ZM64.7042 23.9264C62.117 23.9264 60.0083 25.8943 60.0083 28.6047C60.0083 31.2986 62.117 33.283 64.7042 33.283C67.2925 33.283 69.4012 31.2986 69.4012 28.6047C69.4012 25.8943 67.2925 23.9264 64.7042 23.9264ZM64.7042 31.4416C63.2863 31.4416 62.0642 30.2723 62.0642 28.6058C62.0642 26.9217 63.2874 25.77 64.7042 25.77C66.1221 25.77 67.3442 26.9217 67.3442 28.6058C67.3453 30.2712 66.1221 31.4416 64.7042 31.4416ZM52.5184 25.363V27.3474H57.2682C57.1263 28.4639 56.7545 29.279 56.1869 29.8455C55.4961 30.5363 54.4148 31.2986 52.5184 31.2986C49.5946 31.2986 47.3088 28.9413 47.3088 26.0175C47.3088 23.0937 49.5946 20.7364 52.5184 20.7364C54.0958 20.7364 55.2475 21.3568 56.0978 22.1543L57.4981 20.754C56.3101 19.6199 54.7338 18.752 52.5184 18.752C48.5133 18.752 45.1462 22.0124 45.1462 26.0175C45.1462 30.0226 48.5133 33.283 52.5184 33.283C54.6799 33.283 56.3112 32.5735 57.5861 31.2447C58.8973 29.9335 59.3054 28.0899 59.3054 26.6016C59.3054 26.1418 59.2702 25.7161 59.1987 25.3619H52.5184V25.363ZM102.357 26.9041C101.968 25.8591 100.78 23.9264 98.3521 23.9264C95.942 23.9264 93.9389 25.8228 93.9389 28.6047C93.9389 31.2271 95.9244 33.283 98.582 33.283C100.726 33.283 101.967 31.9718 102.482 31.2095L100.887 30.1458C100.355 30.9257 99.6281 31.4394 98.582 31.4394C97.537 31.4394 96.7923 30.9609 96.3138 30.0215L102.57 27.4343L102.357 26.9041ZM95.9772 28.4639C95.9244 26.6555 97.3775 25.7348 98.4236 25.7348C99.2387 25.7348 99.9295 26.1429 100.161 26.727L95.9772 28.4639ZM90.8919 33.0003H92.9467V19.2492H90.8919V33.0003ZM87.5237 24.9725H87.4533C86.9924 24.4225 86.1058 23.9264 84.9904 23.9264C82.6507 23.9264 80.5068 25.9823 80.5068 28.6234C80.5068 31.2458 82.6507 33.2841 84.9904 33.2841C86.1069 33.2841 86.9924 32.788 87.4533 32.2215H87.5237V32.8947C87.5237 34.6844 86.5667 35.6414 85.0256 35.6414C83.7672 35.6414 82.9873 34.7383 82.6683 33.976L80.8786 34.7207C81.3923 35.9604 82.7563 37.485 85.0256 37.485C87.4357 37.485 89.474 36.0671 89.474 32.6109V24.2113H87.5248V24.9725H87.5237ZM85.1675 31.4416C83.7496 31.4416 82.5627 30.2536 82.5627 28.6234C82.5627 26.9745 83.7496 25.77 85.1675 25.77C86.5667 25.77 87.6656 26.9745 87.6656 28.6234C87.6656 30.2536 86.5667 31.4416 85.1675 31.4416ZM111.987 19.2492H107.069V33.0003H109.12V27.7907H111.986C114.26 27.7907 116.498 26.144 116.498 23.5205C116.498 20.897 114.261 19.2492 111.987 19.2492ZM112.039 25.8767H109.12V21.1632H112.039C113.574 21.1632 114.445 22.4337 114.445 23.5205C114.445 24.5853 113.574 25.8767 112.039 25.8767ZM124.725 23.9022C123.239 23.9022 121.7 24.5567 121.063 26.0076L122.884 26.7677C123.274 26.0076 124 25.759 124.76 25.759C125.821 25.759 126.9 26.3959 126.918 27.5278V27.6697C126.546 27.4574 125.75 27.1395 124.777 27.1395C122.814 27.1395 120.814 28.2186 120.814 30.2349C120.814 32.0752 122.425 33.2599 124.229 33.2599C125.608 33.2599 126.369 32.6406 126.847 31.9146H126.917V32.9761H128.899V27.7038C128.9 25.264 127.076 23.9022 124.725 23.9022ZM124.476 31.4383C123.805 31.4383 122.867 31.1017 122.867 30.2701C122.867 29.2086 124.035 28.8016 125.044 28.8016C125.945 28.8016 126.37 28.9963 126.918 29.2614C126.759 30.5363 125.662 31.4383 124.476 31.4383ZM136.117 24.2025L133.764 30.1645H133.694L131.252 24.2025H129.041L132.703 32.535L130.615 37.1704H132.756L138.4 24.2025H136.117ZM117.631 33.0003H119.682V19.2492H117.631V33.0003Z" fill="white"/>
    <path d="M52.1599 11.2673C52.1599 12.1891 51.8871 12.9228 51.3404 13.4706C50.72 14.1218 49.9104 14.4474 48.916 14.4474C47.9634 14.4474 47.1527 14.1174 46.4872 13.4574C45.8206 12.7963 45.4873 11.9779 45.4873 11.0011C45.4873 10.0232 45.8206 9.20476 46.4872 8.54476C47.1527 7.88366 47.9634 7.55366 48.916 7.55366C49.389 7.55366 49.8411 7.64606 50.2701 7.82976C50.7002 8.01456 51.0445 8.25986 51.3019 8.56676L50.7222 9.14756C50.2855 8.62506 49.6838 8.36436 48.9149 8.36436C48.2197 8.36436 47.6191 8.60856 47.112 9.09696C46.6049 9.58536 46.3519 10.2201 46.3519 11C46.3519 11.7799 46.6049 12.4146 47.112 12.903C47.6191 13.3914 48.2197 13.6356 48.9149 13.6356C49.6519 13.6356 50.2668 13.3903 50.7585 12.8986C51.0775 12.5785 51.2623 12.133 51.3118 11.5621H48.9149V10.769H52.1126C52.1456 10.9417 52.1599 11.1078 52.1599 11.2673Z" fill="white"/>
    <path d="M57.231 8.51072H54.2258V10.6029H56.9362V11.396H54.2258V13.4882H57.231V14.3H53.3777V7.70002H57.231V8.51072Z" fill="white"/>
    <path d="M60.807 14.3H59.9589V8.51072H58.1153V7.70002H62.6506V8.51072H60.807V14.3Z" fill="white"/>
    <path d="M65.9318 14.3V7.70002H66.7799V14.3H65.9318Z" fill="white"/>
    <path d="M70.541 14.3H69.6929V8.51072H67.8493V7.70002H72.3846V8.51072H70.541V14.3Z" fill="white"/>
    <path d="M80.9699 13.4475C80.3209 14.1141 79.5146 14.4474 78.5499 14.4474C77.5852 14.4474 76.7789 14.1141 76.131 13.4475C75.482 12.7809 75.1586 11.9647 75.1586 11C75.1586 10.0353 75.482 9.21911 76.131 8.55251C76.7789 7.88591 77.5852 7.55151 78.5499 7.55151C79.5091 7.55151 80.3143 7.88701 80.9655 8.55691C81.6167 9.22681 81.9423 10.0408 81.9423 11C81.9423 11.9647 81.6178 12.7809 80.9699 13.4475ZM76.7569 12.8942C77.2453 13.3892 77.8426 13.6356 78.5499 13.6356C79.2572 13.6356 79.8556 13.3881 80.3429 12.8942C80.8313 12.3992 81.0766 11.7678 81.0766 11C81.0766 10.2322 80.8313 9.60081 80.3429 9.10581C79.8556 8.61081 79.2572 8.36441 78.5499 8.36441C77.8426 8.36441 77.2453 8.61191 76.7569 9.10581C76.2696 9.60081 76.0243 10.2322 76.0243 11C76.0243 11.7678 76.2696 12.3992 76.7569 12.8942Z" fill="white"/>
    <path d="M83.1325 14.3V7.70002H84.1643L87.3719 12.8337H87.4082L87.3719 11.5621V7.70002H88.22V14.3H87.3345L83.9784 8.91663H83.9421L83.9784 10.1882V14.3H83.1325Z" fill="white"/>
    <path d="M52.1599 11.2673C52.1599 12.1891 51.8871 12.9228 51.3404 13.4706C50.72 14.1218 49.9104 14.4474 48.916 14.4474C47.9634 14.4474 47.1527 14.1174 46.4872 13.4574C45.8206 12.7963 45.4873 11.9779 45.4873 11.0011C45.4873 10.0232 45.8206 9.20476 46.4872 8.54476C47.1527 7.88366 47.9634 7.55366 48.916 7.55366C49.389 7.55366 49.8411 7.64606 50.2701 7.82976C50.7002 8.01456 51.0445 8.25986 51.3019 8.56676L50.7222 9.14756C50.2855 8.62506 49.6838 8.36436 48.9149 8.36436C48.2197 8.36436 47.6191 8.60856 47.112 9.09696C46.6049 9.58536 46.3519 10.2201 46.3519 11C46.3519 11.7799 46.6049 12.4146 47.112 12.903C47.6191 13.3914 48.2197 13.6356 48.9149 13.6356C49.6519 13.6356 50.2668 13.3903 50.7585 12.8986C51.0775 12.5785 51.2623 12.133 51.3118 11.5621H48.9149V10.769H52.1126C52.1456 10.9417 52.1599 11.1078 52.1599 11.2673Z" stroke="white" stroke-width="0.2" stroke-miterlimit="10"/>
    <path d="M57.231 8.51072H54.2258V10.6029H56.9362V11.396H54.2258V13.4882H57.231V14.3H53.3777V7.70002H57.231V8.51072Z" stroke="white" stroke-width="0.2" stroke-miterlimit="10"/>
    <path d="M60.807 14.3H59.9589V8.51072H58.1153V7.70002H62.6506V8.51072H60.807V14.3Z" stroke="white" stroke-width="0.2" stroke-miterlimit="10"/>
    <path d="M65.9318 14.3V7.70002H66.7799V14.3H65.9318Z" stroke="white" stroke-width="0.2" stroke-miterlimit="10"/>
    <path d="M70.541 14.3H69.6929V8.51072H67.8493V7.70002H72.3846V8.51072H70.541V14.3Z" stroke="white" stroke-width="0.2" stroke-miterlimit="10"/>
    <path d="M80.9699 13.4475C80.3209 14.1141 79.5146 14.4474 78.5499 14.4474C77.5852 14.4474 76.7789 14.1141 76.131 13.4475C75.482 12.7809 75.1586 11.9647 75.1586 11C75.1586 10.0353 75.482 9.21911 76.131 8.55251C76.7789 7.88591 77.5852 7.55151 78.5499 7.55151C79.5091 7.55151 80.3143 7.88701 80.9655 8.55691C81.6167 9.22681 81.9423 10.0408 81.9423 11C81.9423 11.9647 81.6178 12.7809 80.9699 13.4475ZM76.7569 12.8942C77.2453 13.3892 77.8426 13.6356 78.5499 13.6356C79.2572 13.6356 79.8556 13.3881 80.3429 12.8942C80.8313 12.3992 81.0766 11.7678 81.0766 11C81.0766 10.2322 80.8313 9.60081 80.3429 9.10581C79.8556 8.61081 79.2572 8.36441 78.5499 8.36441C77.8426 8.36441 77.2453 8.61191 76.7569 9.10581C76.2696 9.60081 76.0243 10.2322 76.0243 11C76.0243 11.7678 76.2696 12.3992 76.7569 12.8942Z" stroke="white" stroke-width="0.2" stroke-miterlimit="10"/>
    <path d="M83.1325 14.3V7.70002H84.1643L87.3719 12.8337H87.4082L87.3719 11.5621V7.70002H88.22V14.3H87.3345L83.9784 8.91663H83.9421L83.9784 10.1882V14.3H83.1325Z" stroke="white" stroke-width="0.2" stroke-miterlimit="10"/>
    <g filter="url(#filter0_ii_368_47396)">
        <path d="M11.4795 8.29173C11.1594 8.63053 10.9702 9.15633 10.9702 9.83723V34.1648C10.9702 34.8468 11.1594 35.3715 11.4795 35.7103L11.5609 35.7895L25.1888 22.1616V22.001V21.8404L11.5609 8.21143L11.4795 8.29173Z" fill="url(#paint0_linear_368_47396)"/>
        <path d="M29.7306 26.7057L25.1887 22.1616V22.001V21.8404L29.7317 17.2974L29.834 17.3557L35.2163 20.4137C36.753 21.2871 36.753 22.716 35.2163 23.5905L29.834 26.6485L29.7306 26.7057Z" fill="url(#paint1_linear_368_47396)"/>
        <g filter="url(#filter1_i_368_47396)">
            <path d="M29.8341 26.6474L25.1877 22.001L11.4795 35.7103C11.9855 36.2471 12.8226 36.3131 13.7653 35.7785L29.8341 26.6474Z" fill="url(#paint2_linear_368_47396)"/>
        </g>
        <path d="M29.8341 17.3547L13.7653 8.22466C12.8226 7.68896 11.9855 7.75606 11.4795 8.29286L25.1888 22.0022L29.8341 17.3547Z" fill="url(#paint3_linear_368_47396)"/>
    </g>
    <defs>
        <filter id="filter0_ii_368_47396" x="10.9702" y="7.85498" width="25.3987" height="28.2927" filterUnits="userSpaceOnUse" color-interpolation-filters="sRGB">
            <feFlood flood-opacity="0" result="BackgroundImageFix"/>
            <feBlend mode="normal" in="SourceGraphic" in2="BackgroundImageFix" result="shape"/>
            <feColorMatrix in="SourceAlpha" type="matrix" values="0 0 0 0 0 0 0 0 0 0 0 0 0 0 0 0 0 0 127 0" result="hardAlpha"/>
            <feOffset dy="-0.15"/>
            <feComposite in2="hardAlpha" operator="arithmetic" k2="-1" k3="1"/>
            <feColorMatrix type="matrix" values="0 0 0 0 0 0 0 0 0 0 0 0 0 0 0 0 0 0 0.12 0"/>
            <feBlend mode="normal" in2="shape" result="effect1_innerShadow_368_47396"/>
            <feColorMatrix in="SourceAlpha" type="matrix" values="0 0 0 0 0 0 0 0 0 0 0 0 0 0 0 0 0 0 127 0" result="hardAlpha"/>
            <feOffset dy="0.15"/>
            <feComposite in2="hardAlpha" operator="arithmetic" k2="-1" k3="1"/>
            <feColorMatrix type="matrix" values="0 0 0 0 1 0 0 0 0 1 0 0 0 0 1 0 0 0 0.25 0"/>
            <feBlend mode="normal" in2="effect1_innerShadow_368_47396" result="effect2_innerShadow_368_47396"/>
        </filter>
        <filter id="filter1_i_368_47396" x="11.4795" y="22.001" width="18.3545" height="14.1467" filterUnits="userSpaceOnUse" color-interpolation-filters="sRGB">
            <feFlood flood-opacity="0" result="BackgroundImageFix"/>
            <feBlend mode="normal" in="SourceGraphic" in2="BackgroundImageFix" result="shape"/>
            <feColorMatrix in="SourceAlpha" type="matrix" values="0 0 0 0 0 0 0 0 0 0 0 0 0 0 0 0 0 0 127 0" result="hardAlpha"/>
            <feOffset dy="-0.15"/>
            <feComposite in2="hardAlpha" operator="arithmetic" k2="-1" k3="1"/>
            <feColorMatrix type="matrix" values="0 0 0 0 0 0 0 0 0 0 0 0 0 0 0 0 0 0 0.08 0"/>
            <feBlend mode="normal" in2="shape" result="effect1_innerShadow_368_47396"/>
        </filter>
        <linearGradient id="paint0_linear_368_47396" x1="23.9808" y1="9.57983" x2="5.5206" y2="28.04" gradientUnits="userSpaceOnUse">
            <stop stop-color="#00A0FF"/>
            <stop offset="0.0066" stop-color="#00A1FF"/>
            <stop offset="0.2601" stop-color="#00BEFF"/>
            <stop offset="0.5122" stop-color="#00D2FF"/>
            <stop offset="0.7604" stop-color="#00DFFF"/>
            <stop offset="1" stop-color="#00E3FF"/>
        </linearGradient>
        <linearGradient id="paint1_linear_368_47396" x1="37.2167" y1="22.001" x2="10.6012" y2="22.001" gradientUnits="userSpaceOnUse">
            <stop stop-color="#FFE000"/>
            <stop offset="0.4087" stop-color="#FFBD00"/>
            <stop offset="0.7754" stop-color="#FFA500"/>
            <stop offset="1" stop-color="#FF9C00"/>
        </linearGradient>
        <linearGradient id="paint2_linear_368_47396" x1="27.3108" y1="24.5243" x2="2.27646" y2="49.5586" gradientUnits="userSpaceOnUse">
            <stop stop-color="#FF3A44"/>
            <stop offset="1" stop-color="#C31162"/>
        </linearGradient>
        <linearGradient id="paint3_linear_368_47396" x1="8.02703" y1="0.194443" x2="19.2056" y2="11.373" gradientUnits="userSpaceOnUse">
            <stop stop-color="#32A071"/>
            <stop offset="0.0685" stop-color="#2DA771"/>
            <stop offset="0.4762" stop-color="#15CF74"/>
            <stop offset="0.8009" stop-color="#06E775"/>
            <stop offset="1" stop-color="#00F076"/>
        </linearGradient>
    </defs>
</svg>
