<svg width="36" height="37" viewBox="0 0 36 37" fill="none" xmlns="http://www.w3.org/2000/svg">
<rect x="2" y="2.02344" width="32" height="32" rx="16" fill="#ADF2FC"/>
<rect x="2" y="2.02344" width="32" height="32" rx="16" stroke="#DFFBFF" stroke-width="4"/>
<g clip-path="url(#clip0_772_3196)">
<path d="M24.6663 18.0236C24.6663 21.7055 21.6816 24.6903 17.9997 24.6903M24.6663 18.0236C24.6663 14.3417 21.6816 11.3569 17.9997 11.3569M24.6663 18.0236H11.333M17.9997 24.6903C14.3178 24.6903 11.333 21.7055 11.333 18.0236M17.9997 24.6903C19.6672 22.8647 20.6148 20.4956 20.6663 18.0236C20.6148 15.5516 19.6672 13.1825 17.9997 11.3569M17.9997 24.6903C16.3322 22.8647 15.3845 20.4956 15.333 18.0236C15.3845 15.5516 16.3322 13.1825 17.9997 11.3569M11.333 18.0236C11.333 14.3417 14.3178 11.3569 17.9997 11.3569" stroke="#54B8C7" stroke-linecap="round" stroke-linejoin="round"/>
</g>
<defs>
<clipPath id="clip0_772_3196">
<rect width="16" height="16" fill="white" transform="translate(10 10.0234)"/>
</clipPath>
</defs>
</svg>
