<svg width="36" height="37" viewBox="0 0 36 37" fill="none" xmlns="http://www.w3.org/2000/svg">
<rect x="2" y="2.02344" width="32" height="32" rx="16" fill="#ADF2FC"/>
<rect x="2" y="2.02344" width="32" height="32" rx="16" stroke="#DFFBFF" stroke-width="4"/>
<path d="M23.3337 24.0234V22.6901C23.3337 21.9829 23.0527 21.3046 22.5526 20.8045C22.0525 20.3044 21.3742 20.0234 20.667 20.0234H15.3337C14.6264 20.0234 13.9481 20.3044 13.448 20.8045C12.9479 21.3046 12.667 21.9829 12.667 22.6901V24.0234M20.667 14.6901C20.667 16.1629 19.4731 17.3568 18.0003 17.3568C16.5276 17.3568 15.3337 16.1629 15.3337 14.6901C15.3337 13.2173 16.5276 12.0234 18.0003 12.0234C19.4731 12.0234 20.667 13.2173 20.667 14.6901Z" stroke="#54B8C7" stroke-linecap="round" stroke-linejoin="round"/>
</svg>
