<svg width="24" height="33" viewBox="0 0 24 33" fill="none" xmlns="http://www.w3.org/2000/svg">
<path fill-rule="evenodd" clip-rule="evenodd" d="M4.65847 13.7026C0.24134 18.4598 0.348828 22.7403 0.348828 22.7403C0.348828 22.7403 1.80295 17.7092 12.5233 12.3556C23.2437 7.00403 23.4587 0.0234375 23.4587 0.0234375C18.2871 5.44603 9.07561 8.94546 4.65847 13.7026ZM0 27.7734C0 27.7734 0.0608413 24.4464 3.69717 20.7522C6.90557 17.4922 14.2289 14.857 17.92 10.9863C17.92 10.9863 17.1189 16.8105 9.46702 20.6305C1.81715 24.4505 0 27.7714 0 27.7714V27.7734ZM2.70544 27.0674C5.00527 24.7304 9.25813 23.7567 11.9048 20.9815C11.9048 20.9815 12.2556 24.7872 6.76969 27.5259C1.2858 30.2646 0.348828 32.0234 0.348828 32.0234C0.348828 32.0234 0.0973476 29.7168 2.70342 27.0674H2.70544Z" fill="#223345"/>
</svg>
