<svg width="18" height="18" viewBox="0 0 18 18" fill="none" xmlns="http://www.w3.org/2000/svg">
<path d="M7.75024 3.19631H10.2502C10.2502 2.88847 10.1185 2.59323 9.88413 2.37556C9.64971 2.15788 9.33177 2.03559 9.00024 2.03559C8.66872 2.03559 8.35078 2.15788 8.11636 2.37556C7.88194 2.59323 7.75024 2.88847 7.75024 3.19631ZM6.50024 3.19631C6.50024 2.58063 6.76364 1.99016 7.23248 1.55481C7.70132 1.11946 8.3372 0.874878 9.00024 0.874878C9.66329 0.874878 10.2992 1.11946 10.768 1.55481C11.2369 1.99016 11.5002 2.58063 11.5002 3.19631H16.5002C16.666 3.19631 16.825 3.25745 16.9422 3.36629C17.0594 3.47513 17.1252 3.62274 17.1252 3.77666C17.1252 3.93058 17.0594 4.0782 16.9422 4.18704C16.825 4.29588 16.666 4.35702 16.5002 4.35702H15.7952L14.289 14.6154C14.1868 15.3106 13.8169 15.9479 13.2476 16.4093C12.6784 16.8706 11.9483 17.1249 11.1927 17.1249H6.80774C6.05214 17.1249 5.32213 16.8706 4.75287 16.4093C4.18361 15.9479 3.81365 15.3106 3.71149 14.6154L2.20524 4.35702H1.50024C1.33448 4.35702 1.17551 4.29588 1.0583 4.18704C0.941092 4.0782 0.875244 3.93058 0.875244 3.77666C0.875244 3.62274 0.941092 3.47513 1.0583 3.36629C1.17551 3.25745 1.33448 3.19631 1.50024 3.19631H6.50024ZM7.75024 7.25881C7.75024 7.10489 7.6844 6.95727 7.56719 6.84843C7.44998 6.73959 7.291 6.67845 7.12524 6.67845C6.95948 6.67845 6.80051 6.73959 6.6833 6.84843C6.56609 6.95727 6.50024 7.10489 6.50024 7.25881V13.0624C6.50024 13.2163 6.56609 13.3639 6.6833 13.4728C6.80051 13.5816 6.95948 13.6427 7.12524 13.6427C7.291 13.6427 7.44998 13.5816 7.56719 13.4728C7.6844 13.3639 7.75024 13.2163 7.75024 13.0624V7.25881ZM10.8752 6.67845C11.041 6.67845 11.2 6.73959 11.3172 6.84843C11.4344 6.95727 11.5002 7.10489 11.5002 7.25881V13.0624C11.5002 13.2163 11.4344 13.3639 11.3172 13.4728C11.2 13.5816 11.041 13.6427 10.8752 13.6427C10.7095 13.6427 10.5505 13.5816 10.4333 13.4728C10.3161 13.3639 10.2502 13.2163 10.2502 13.0624V7.25881C10.2502 7.10489 10.3161 6.95727 10.4333 6.84843C10.5505 6.73959 10.7095 6.67845 10.8752 6.67845ZM4.95024 14.4587C5.01159 14.8757 5.23355 15.258 5.57505 15.5348C5.91655 15.8116 6.35446 15.9641 6.80774 15.9642H11.1927C11.6462 15.9644 12.0845 15.812 12.4262 15.5352C12.768 15.2584 12.9901 14.8759 13.0515 14.4587L14.534 4.35702H3.46649L4.95024 14.4587Z" fill="#8A8A8A"/>
</svg>