<svg width="25" height="25" viewBox="0 0 25 25" fill="none" xmlns="http://www.w3.org/2000/svg">
<g id="Social icon" clip-path="url(#clip0_1920_2988)">
<path id="Vector" d="M24.6582 12.2744C24.6582 5.64699 19.2856 0.274414 12.6582 0.274414C6.03078 0.274414 0.658203 5.64699 0.658203 12.2744C0.658203 18.2639 5.04641 23.2284 10.7832 24.1286V15.7432H7.73633V12.2744H10.7832V9.63066C10.7832 6.62316 12.5748 4.96191 15.3158 4.96191C16.6283 4.96191 18.002 5.19629 18.002 5.19629V8.14941H16.4888C14.9982 8.14941 14.5332 9.07449 14.5332 10.0244V12.2744H17.8613L17.3293 15.7432H14.5332V24.1286C20.27 23.2284 24.6582 18.2639 24.6582 12.2744Z" fill="#98A2B3"/>
<path id="Vector_2" d="M17.3293 15.7432L17.8613 12.2744H14.5332V10.0244C14.5332 9.07543 14.9982 8.14941 16.4888 8.14941H18.002V5.19629C18.002 5.19629 16.6287 4.96191 15.3158 4.96191C12.5748 4.96191 10.7832 6.62316 10.7832 9.63066V12.2744H7.73633V15.7432H10.7832V24.1286C12.0256 24.323 13.2908 24.323 14.5332 24.1286V15.7432H17.3293Z" fill="white"/>
</g>
<defs>
<clipPath id="clip0_1920_2988">
<rect width="24" height="24" fill="white" transform="translate(0.658203 0.274414)"/>
</clipPath>
</defs>
</svg>
