<svg width="25" height="25" viewBox="0 0 25 25" fill="none" xmlns="http://www.w3.org/2000/svg">
<g id="Social icon" clip-path="url(#clip0_1920_2982)">
<path id="Vector" d="M24.4245 12.5507C24.4245 11.7349 24.3583 10.9148 24.2172 10.1123H12.8984V14.7333H19.3802C19.1112 16.2236 18.247 17.542 16.9815 18.3798V21.3781H20.8485C23.1193 19.2881 24.4245 16.2016 24.4245 12.5507Z" fill="#98A2B3"/>
<path id="Vector_2" d="M12.8983 24.2752C16.1348 24.2752 18.8641 23.2126 20.8527 21.3783L16.9858 18.38C15.9099 19.1119 14.5209 19.5264 12.9027 19.5264C9.77209 19.5264 7.11767 17.4143 6.16525 14.5747H2.1748V17.6656C4.21192 21.7178 8.3611 24.2752 12.8983 24.2752Z" fill="#98A2B3"/>
<path id="Vector_3" d="M6.16098 14.5746C5.65831 13.0843 5.65831 11.4705 6.16098 9.9801V6.88916H2.17494C0.472937 10.2799 0.472937 14.2748 2.17494 17.6656L6.16098 14.5746Z" fill="#98A2B3"/>
<path id="Vector_4" d="M12.8983 5.02407C14.6091 4.99762 16.2626 5.64138 17.5016 6.82308L20.9277 3.39703C18.7583 1.35992 15.879 0.239948 12.8983 0.275223C8.3611 0.275223 4.21192 2.83264 2.1748 6.88922L6.16084 9.98016C7.10885 7.13614 9.76768 5.02407 12.8983 5.02407Z" fill="#98A2B3"/>
</g>
<defs>
<clipPath id="clip0_1920_2982">
<rect width="24" height="24" fill="white" transform="translate(0.658203 0.274414)"/>
</clipPath>
</defs>
</svg>
