<svg width="25" height="25" viewBox="0 0 25 25" fill="none" xmlns="http://www.w3.org/2000/svg">
<g id="Social icon" clip-path="url(#clip0_1920_2992)">
<path id="Vector" d="M8.20572 22.0252C17.2624 22.0252 22.216 14.5218 22.216 8.01493C22.216 7.80181 22.216 7.58966 22.2016 7.37846C23.1652 6.68141 23.9971 5.81834 24.6582 4.82965C23.7596 5.22806 22.8062 5.48921 21.83 5.60437C22.858 4.98906 23.6274 4.02116 23.9948 2.88085C23.0283 3.45446 21.9708 3.85868 20.8681 4.07605C20.1257 3.28663 19.1438 2.7639 18.0744 2.58874C17.005 2.41358 15.9076 2.59577 14.9522 3.10711C13.9967 3.61845 13.2364 4.43043 12.7889 5.4174C12.3415 6.40438 12.2317 7.51132 12.4768 8.56693C10.5191 8.46873 8.60396 7.95997 6.85566 7.07366C5.10736 6.18735 3.56497 4.94331 2.3286 3.42229C1.69893 4.50629 1.50608 5.78952 1.7893 7.01072C2.07253 8.23191 2.81054 9.29925 3.85308 9.99541C3.06944 9.97245 2.30285 9.76105 1.6182 9.37909V9.44149C1.61851 10.5783 2.01205 11.6801 2.73207 12.5599C3.45209 13.4396 4.45426 14.0433 5.5686 14.2684C4.84368 14.4661 4.08308 14.495 3.34524 14.3529C3.66002 15.3312 4.27263 16.1867 5.09744 16.7998C5.92225 17.4129 6.91803 17.7529 7.94556 17.7724C6.92464 18.5749 5.75552 19.1682 4.50508 19.5184C3.25464 19.8686 1.94742 19.9688 0.658203 19.8133C2.91004 21.2584 5.53013 22.0248 8.20572 22.0213" fill="#98A2B3"/>
</g>
<defs>
<clipPath id="clip0_1920_2992">
<rect width="24" height="24" fill="white" transform="translate(0.658203 0.274414)"/>
</clipPath>
</defs>
</svg>
