<svg width="26" height="32" viewBox="0 0 26 32" fill="none" xmlns="http://www.w3.org/2000/svg">
<path d="M16.8404 3.187L18.2422 0.850481C18.2802 0.787263 18.3053 0.717194 18.3161 0.644273C18.327 0.571352 18.3233 0.497008 18.3055 0.425485C18.2876 0.353962 18.2558 0.286662 18.2119 0.227426C18.168 0.168191 18.1129 0.11818 18.0497 0.080249C17.9864 0.0423184 17.9164 0.0172109 17.8435 0.0063599C17.7705 -0.00449106 17.6962 -0.000872914 17.6247 0.0170078C17.5531 0.0348884 17.4858 0.0666814 17.4266 0.110572C17.3674 0.154462 17.3174 0.209589 17.2794 0.272807L15.8002 2.73845C14.9193 2.42519 13.9762 2.24554 12.9893 2.24554C12.0023 2.24554 11.0592 2.42519 10.1784 2.73845L8.69909 0.272807C8.62249 0.145133 8.4983 0.0531194 8.35386 0.0170078C8.20941 -0.0191039 8.05654 0.00364472 7.92886 0.0802491C7.80119 0.156853 7.70917 0.281038 7.67306 0.425485C7.63695 0.569932 7.6597 0.722807 7.7363 0.850481L9.1381 3.187C6.42826 4.58768 4.56836 7.41149 4.56836 10.667C4.56836 10.8159 4.62751 10.9587 4.73279 11.064C4.83807 11.1693 4.98086 11.2284 5.12975 11.2284H20.8488C20.9977 11.2284 21.1405 11.1693 21.2457 11.064C21.351 10.9587 21.4102 10.8159 21.4102 10.667C21.4096 7.41205 19.5503 4.58824 16.8404 3.187ZM5.71248 10.1056C5.99991 6.3426 9.15382 3.36889 12.9893 3.36889C16.8247 3.36889 19.9786 6.3426 20.2661 10.1056H5.71248Z" fill="black"/>
<path d="M16.9056 6.37964H16.1657C16.0676 6.37964 15.9735 6.41862 15.9041 6.488C15.8347 6.55738 15.7958 6.65148 15.7958 6.7496V7.48951C15.7958 7.69386 15.9614 7.85947 16.1657 7.85947H16.9062C17.0043 7.85947 17.0984 7.82049 17.1678 7.75111C17.2372 7.68173 17.2762 7.58763 17.2762 7.48951V6.7496C17.276 6.65143 17.2369 6.55733 17.1674 6.48796C17.098 6.4186 17.0038 6.37964 16.9056 6.37964ZM9.8113 6.37964H9.07082C8.9727 6.37964 8.8786 6.41862 8.80922 6.488C8.73984 6.55738 8.70086 6.65148 8.70086 6.7496V7.48951C8.70086 7.69386 8.86647 7.85947 9.07082 7.85947H9.8113C9.90942 7.85947 10.0035 7.82049 10.0729 7.75111C10.1423 7.68173 10.1813 7.58763 10.1813 7.48951V6.7496C10.1813 6.65148 10.1423 6.55738 10.0729 6.488C10.0035 6.41862 9.90942 6.37964 9.8113 6.37964ZM20.8477 11.7898H5.12872C4.97982 11.7898 4.83703 11.8489 4.73175 11.9542C4.62647 12.0595 4.56732 12.2023 4.56732 12.3512V23.6751C4.56851 24.3942 4.8549 25.0835 5.36365 25.5917C5.87241 26.0999 6.56198 26.3856 7.2811 26.386H7.93568V29.7578C7.93568 30.9939 8.94282 32 10.1813 32C11.4197 32 12.4268 30.9939 12.4268 29.7578V26.386H13.5496V29.7578C13.5496 30.9939 14.5568 32 15.7952 32C17.0336 32 18.0408 30.9939 18.0408 29.7578V26.386H18.6954C19.4145 26.3857 20.1042 26.1001 20.613 25.5918C21.1218 25.0836 21.4081 24.3942 21.4091 23.6751V12.3512C21.4091 12.2023 21.35 12.0595 21.2447 11.9542C21.1394 11.8489 20.9966 11.7898 20.8477 11.7898ZM20.2863 23.6751C20.2856 24.0965 20.1177 24.5005 19.8194 24.7982C19.5211 25.096 19.1168 25.2632 18.6954 25.2632H17.4794C17.3305 25.2632 17.1877 25.3224 17.0824 25.4277C16.9771 25.5329 16.918 25.6757 16.918 25.8246V29.7578C16.918 30.0555 16.7997 30.3411 16.5891 30.5517C16.3786 30.7623 16.093 30.8805 15.7952 30.8805C15.4974 30.8805 15.2118 30.7623 15.0013 30.5517C14.7907 30.3411 14.6724 30.0555 14.6724 29.7578V25.8246C14.6724 25.6757 14.6133 25.5329 14.508 25.4277C14.4027 25.3224 14.2599 25.2632 14.111 25.2632H11.8654C11.7165 25.2632 11.5738 25.3224 11.4685 25.4277C11.3632 25.5329 11.304 25.6757 11.304 25.8246V29.7578C11.304 30.0555 11.1858 30.3411 10.9752 30.5517C10.7646 30.7623 10.479 30.8805 10.1813 30.8805C9.88348 30.8805 9.59789 30.7623 9.38733 30.5517C9.17676 30.3411 9.05847 30.0555 9.05847 29.7578V25.8246C9.05847 25.6757 8.99932 25.5329 8.89404 25.4277C8.78876 25.3224 8.64597 25.2632 8.49708 25.2632H7.28166C6.86018 25.2631 6.45596 25.0958 6.15762 24.7981C5.85927 24.5004 5.69115 24.0965 5.69011 23.6751V12.9126H20.2863V23.6751ZM23.9354 11.7898C22.8519 11.7898 21.9705 12.6723 21.9705 13.7569V21.6119C21.9705 22.6965 22.8519 23.5791 23.9354 23.5791C25.0189 23.5791 25.9003 22.6965 25.9003 21.6119V13.7569C25.9 13.2357 25.6929 12.7358 25.3246 12.3671C24.9562 11.9983 24.4566 11.7907 23.9354 11.7898ZM24.7775 21.6119C24.7775 22.0773 24.3997 22.4563 23.9354 22.4563C23.4711 22.4563 23.0933 22.0773 23.0933 21.6119V13.7569C23.0933 13.2915 23.4711 12.9126 23.9354 12.9126C24.3997 12.9126 24.7775 13.2915 24.7775 13.7569V21.6119ZM2.04105 11.7898C0.95756 11.7898 0.0761719 12.6723 0.0761719 13.7569V21.6119C0.0761719 22.6965 0.95756 23.5791 2.04105 23.5791C3.12454 23.5791 4.00593 22.6965 4.00593 21.6119V13.7569C4.00563 13.2357 3.79859 12.7358 3.43024 12.3671C3.06188 11.9983 2.56228 11.7907 2.04105 11.7898ZM2.88314 21.6119C2.88314 22.0773 2.50532 22.4563 2.04105 22.4563C1.57678 22.4563 1.19896 22.0773 1.19896 21.6119V13.7569C1.19896 13.2915 1.57678 12.9126 2.04105 12.9126C2.50532 12.9126 2.88314 13.2915 2.88314 13.7569V21.6119Z" fill="black"/>
</svg>
