<svg width="33" height="30" viewBox="0 0 33 30" fill="none" xmlns="http://www.w3.org/2000/svg">
<path d="M31.9256 0.154565L31.938 0.253794L31.9256 0.154566L11.9256 2.65457C11.7805 2.6727 11.647 2.74322 11.5502 2.85287C11.4534 2.96251 11.4 3.10374 11.4 3.24999V24.8574C11.1747 24.7054 10.9199 24.5644 10.6374 24.436C9.51893 23.9276 8.04948 23.65 6.5 23.65C4.95052 23.65 3.48107 23.9277 2.36262 24.436C1.12078 25.0004 0.4 25.8161 0.4 26.75C0.4 27.6838 1.12078 28.4995 2.36262 29.064C3.48107 29.5723 4.95052 29.85 6.5 29.85C8.04948 29.85 9.51893 29.5723 10.6374 29.064C11.8792 28.4995 12.6 27.6838 12.6 26.75V11.7796L31.4 9.42963V22.3574C31.1747 22.2054 30.9199 22.0644 30.6373 21.9359C29.5189 21.4276 28.0495 21.15 26.5 21.15C24.9505 21.15 23.4811 21.4277 22.3627 21.936C21.1208 22.5004 20.4 23.3161 20.4 24.25C20.4 25.1838 21.1208 25.9995 22.3627 26.564C23.4811 27.0723 24.9505 27.35 26.5 27.35C28.0495 27.35 29.5189 27.0723 30.6373 26.564C31.8792 25.9995 32.6 25.1838 32.6 24.25V0.749981C32.6 0.664901 32.5819 0.580784 32.5469 0.503223C32.5119 0.425663 32.4608 0.356434 32.397 0.30013C32.3333 0.243836 32.2583 0.201744 32.177 0.176647C32.0957 0.151549 32.01 0.144022 31.9256 0.154565ZM12.6 3.77963L31.4 1.42963V8.22026L12.6 10.5703V3.77963ZM6.5 28.65C5.08046 28.65 3.84418 28.3879 2.96622 28.0121C2.52693 27.824 2.18146 27.6092 1.94752 27.3881C1.71232 27.1658 1.6 26.9472 1.6 26.75C1.6 26.5527 1.71232 26.3342 1.94752 26.1119C2.18146 25.8907 2.52693 25.676 2.96622 25.4879C3.84418 25.112 5.08046 24.85 6.5 24.85C7.91954 24.85 9.15582 25.112 10.0338 25.4879C10.4731 25.676 10.8185 25.8907 11.0525 26.1119C11.2877 26.3342 11.4 26.5527 11.4 26.75C11.4 26.9472 11.2877 27.1658 11.0525 27.3881C10.8185 27.6092 10.4731 27.824 10.0338 28.0121C9.15582 28.3879 7.91954 28.65 6.5 28.65ZM26.5 26.15C25.0805 26.15 23.8442 25.8879 22.9662 25.5121C22.5269 25.324 22.1815 25.1092 21.9475 24.8881C21.7123 24.6658 21.6 24.4472 21.6 24.25C21.6 24.0527 21.7123 23.8342 21.9475 23.6119C22.1815 23.3907 22.5269 23.176 22.9662 22.9879C23.8442 22.612 25.0805 22.35 26.5 22.35C27.9195 22.35 29.1558 22.612 30.0338 22.9879C30.4731 23.176 30.8185 23.3907 31.0525 23.6119C31.2877 23.8342 31.4 24.0527 31.4 24.25C31.4 24.4472 31.2877 24.6658 31.0525 24.8881C30.8185 25.1092 30.4731 25.324 30.0338 25.5121C29.1558 25.8879 27.9195 26.15 26.5 26.15Z" fill="black" stroke="black" stroke-width="0.2"/>
</svg>
