<svg width="30" height="30" viewBox="0 0 30 30" fill="none" xmlns="http://www.w3.org/2000/svg">
<path d="M1 9C0.734784 9 0.48043 9.10536 0.292893 9.29289C0.105357 9.48043 0 9.73478 0 10V20C0 20.2652 0.105357 20.5196 0.292893 20.7071C0.48043 20.8946 0.734784 21 1 21C1.26522 21 1.51957 20.8946 1.70711 20.7071C1.89464 20.5196 2 20.2652 2 20V10C2 9.73478 1.89464 9.48043 1.70711 9.29289C1.51957 9.10536 1.26522 9 1 9ZM5 4C4.73478 4 4.48043 4.10536 4.29289 4.29289C4.10536 4.48043 4 4.73478 4 5V25C4 25.2652 4.10536 25.5196 4.29289 25.7071C4.48043 25.8946 4.73478 26 5 26C5.26522 26 5.51957 25.8946 5.70711 25.7071C5.89464 25.5196 6 25.2652 6 25V5C6 4.73478 5.89464 4.48043 5.70711 4.29289C5.51957 4.10536 5.26522 4 5 4ZM17 9C16.7348 9 16.4804 9.10536 16.2929 9.29289C16.1054 9.48043 16 9.73478 16 10V20C16 20.2652 16.1054 20.5196 16.2929 20.7071C16.4804 20.8946 16.7348 21 17 21C17.2652 21 17.5196 20.8946 17.7071 20.7071C17.8946 20.5196 18 20.2652 18 20V10C18 9.73478 17.8946 9.48043 17.7071 9.29289C17.5196 9.10536 17.2652 9 17 9ZM13 4C12.7348 4 12.4804 4.10536 12.2929 4.29289C12.1054 4.48043 12 4.73478 12 5V25C12 25.2652 12.1054 25.5196 12.2929 25.7071C12.4804 25.8946 12.7348 26 13 26C13.2652 26 13.5196 25.8946 13.7071 25.7071C13.8946 25.5196 14 25.2652 14 25V5C14 4.73478 13.8946 4.48043 13.7071 4.29289C13.5196 4.10536 13.2652 4 13 4ZM9 0C8.73478 0 8.48043 0.105357 8.29289 0.292893C8.10536 0.48043 8 0.734784 8 1V29C8 29.2652 8.10536 29.5196 8.29289 29.7071C8.48043 29.8946 8.73478 30 9 30C9.26522 30 9.51957 29.8946 9.70711 29.7071C9.89464 29.5196 10 29.2652 10 29V1C10 0.734784 9.89464 0.48043 9.70711 0.292893C9.51957 0.105357 9.26522 0 9 0ZM29 9C28.7348 9 28.4804 9.10536 28.2929 9.29289C28.1054 9.48043 28 9.73478 28 10V20C28 20.2652 28.1054 20.5196 28.2929 20.7071C28.4804 20.8946 28.7348 21 29 21C29.2652 21 29.5196 20.8946 29.7071 20.7071C29.8946 20.5196 30 20.2652 30 20V10C30 9.73478 29.8946 9.48043 29.7071 9.29289C29.5196 9.10536 29.2652 9 29 9ZM25 4C24.7348 4 24.4804 4.10536 24.2929 4.29289C24.1054 4.48043 24 4.73478 24 5V25C24 25.2652 24.1054 25.5196 24.2929 25.7071C24.4804 25.8946 24.7348 26 25 26C25.2652 26 25.5196 25.8946 25.7071 25.7071C25.8946 25.5196 26 25.2652 26 25V5C26 4.73478 25.8946 4.48043 25.7071 4.29289C25.5196 4.10536 25.2652 4 25 4ZM21 0C20.7348 0 20.4804 0.105357 20.2929 0.292893C20.1054 0.48043 20 0.734784 20 1V29C20 29.2652 20.1054 29.5196 20.2929 29.7071C20.4804 29.8946 20.7348 30 21 30C21.2652 30 21.5196 29.8946 21.7071 29.7071C21.8946 29.5196 22 29.2652 22 29V1C22 0.734784 21.8946 0.48043 21.7071 0.292893C21.5196 0.105357 21.2652 0 21 0Z" fill="black"/>
</svg>
