<svg width="24" height="25" viewBox="0 0 24 25" fill="none" xmlns="http://www.w3.org/2000/svg">
<path d="M3 18.0234V12.0234C3 9.63649 3.94821 7.3473 5.63604 5.65948C7.32387 3.97165 9.61305 3.02344 12 3.02344C14.3869 3.02344 16.6761 3.97165 18.364 5.65948C20.0518 7.3473 21 9.63649 21 12.0234V18.0234M21 19.0234C21 19.5539 20.7893 20.0626 20.4142 20.4377C20.0391 20.8127 19.5304 21.0234 19 21.0234H18C17.4696 21.0234 16.9609 20.8127 16.5858 20.4377C16.2107 20.0626 16 19.5539 16 19.0234V16.0234C16 15.493 16.2107 14.9843 16.5858 14.6092C16.9609 14.2342 17.4696 14.0234 18 14.0234H21V19.0234ZM3 19.0234C3 19.5539 3.21071 20.0626 3.58579 20.4377C3.96086 20.8127 4.46957 21.0234 5 21.0234H6C6.53043 21.0234 7.03914 20.8127 7.41421 20.4377C7.78929 20.0626 8 19.5539 8 19.0234V16.0234C8 15.493 7.78929 14.9843 7.41421 14.6092C7.03914 14.2342 6.53043 14.0234 6 14.0234H3V19.0234Z" stroke="#101828" stroke-width="2" stroke-linecap="round" stroke-linejoin="round"/>
</svg>
