<svg width="32" height="32" viewBox="0 0 32 32" fill="none" xmlns="http://www.w3.org/2000/svg">
<path d="M25.2903 19.8229C24.6351 19.1407 23.8449 18.776 23.0075 18.776C22.1767 18.776 21.3798 19.134 20.6977 19.8161L18.5634 21.9436C18.3878 21.849 18.2122 21.7612 18.0434 21.6734C17.8003 21.5518 17.5706 21.437 17.3748 21.3154C15.3756 20.0457 13.5589 18.391 11.8164 16.2501C10.9722 15.183 10.4048 14.2847 9.99285 13.373C10.5467 12.8664 11.06 12.3396 11.5597 11.8331C11.7488 11.644 11.938 11.4481 12.1271 11.259C13.5454 9.84071 13.5454 8.00367 12.1271 6.58537L10.2833 4.74157C10.0739 4.53221 9.85777 4.31608 9.65516 4.09996C9.24993 3.68122 8.82444 3.24898 8.38544 2.84375C7.73032 2.19538 6.94688 1.85094 6.12291 1.85094C5.29895 1.85094 4.502 2.19538 3.82661 2.84375L3.81311 2.85726L1.51681 5.17382C0.652318 6.03831 0.15929 7.0919 0.0512285 8.31434C-0.110863 10.2865 0.469965 12.1235 0.915717 13.3257C2.00984 16.2771 3.64426 19.0124 6.08239 21.9436C9.04056 25.4758 12.5998 28.2651 16.6656 30.2305C18.219 30.9667 20.2924 31.8379 22.609 31.9865C22.7508 31.9932 22.8994 32 23.0345 32C24.5946 32 25.9049 31.4394 26.9314 30.325C26.9382 30.3115 26.9517 30.3048 26.9584 30.2913C27.3096 29.8658 27.7149 29.4808 28.1404 29.0688C28.4308 28.7919 28.7279 28.5015 29.0184 28.1976C29.687 27.5019 30.0382 26.6915 30.0382 25.8608C30.0382 25.0233 29.6802 24.2196 28.9981 23.5442L25.2903 19.8229ZM27.7081 26.9346C27.7014 26.9346 27.7014 26.9414 27.7081 26.9346C27.4447 27.2183 27.1746 27.4749 26.8842 27.7586C26.4452 28.1773 25.9994 28.6163 25.5807 29.1094C24.8985 29.8388 24.0948 30.1832 23.0412 30.1832C22.9399 30.1832 22.8319 30.1832 22.7306 30.1765C20.7247 30.0481 18.8606 29.2647 17.4626 28.5961C13.6399 26.7455 10.2833 24.1183 7.49394 20.7886C5.19089 18.0128 3.65101 15.4464 2.63119 12.6908C2.00308 11.0091 1.77345 9.69888 1.87476 8.46293C1.9423 7.67273 2.24622 7.01761 2.80679 6.45704L5.10984 4.15399C5.44078 3.84332 5.79198 3.67447 6.13642 3.67447C6.56191 3.67447 6.90636 3.93112 7.12248 4.14724L7.14274 4.1675C7.55472 4.55247 7.94644 4.95094 8.35843 5.37643C8.56779 5.59256 8.78392 5.80868 9.00004 6.03155L10.8438 7.87535C11.5597 8.59125 11.5597 9.25313 10.8438 9.96903C10.648 10.1649 10.4589 10.3608 10.263 10.5499C9.69568 11.1307 9.15538 11.671 8.56779 12.1978C8.55429 12.2113 8.54078 12.2181 8.53403 12.2316C7.9532 12.8124 8.06126 13.3797 8.18283 13.7647L8.20309 13.8255C8.68261 14.9871 9.35799 16.0812 10.3846 17.3847L10.3913 17.3915C12.2554 19.6878 14.2207 21.4775 16.3887 22.8486C16.6656 23.0242 16.9493 23.166 17.2194 23.3011C17.4626 23.4226 17.6922 23.5375 17.8881 23.659C17.9151 23.6725 17.9421 23.6928 17.9691 23.7063C18.1987 23.8211 18.4149 23.8751 18.6377 23.8751C19.1983 23.8751 19.5495 23.5239 19.6643 23.4091L21.9741 21.0993C22.2038 20.8697 22.5685 20.5928 22.994 20.5928C23.4127 20.5928 23.7571 20.8562 23.9665 21.0858L23.98 21.0993L27.7014 24.8207C28.397 25.5096 28.397 26.2187 27.7081 26.9346ZM17.2937 7.61195C19.0632 7.90912 20.6706 8.74659 21.9539 10.0298C23.2371 11.313 24.0678 12.9204 24.3717 14.6899C24.446 15.1357 24.831 15.4464 25.27 15.4464C25.324 15.4464 25.3713 15.4396 25.4253 15.4329C25.9251 15.3518 26.256 14.8791 26.175 14.3793C25.8103 12.2383 24.7972 10.2865 23.2506 8.73984C21.704 7.19321 19.7521 6.18014 17.6112 5.81543C17.1114 5.73439 16.6454 6.06532 16.5576 6.55835C16.4698 7.05138 16.7939 7.5309 17.2937 7.61195ZM31.963 14.1159C31.3619 10.5904 29.7005 7.38232 27.1476 4.82937C24.5946 2.27643 21.3865 0.61499 17.861 0.0139004C17.368 -0.0738993 16.902 0.263792 16.8142 0.756821C16.7332 1.2566 17.0641 1.72262 17.5639 1.81042C20.7112 2.34397 23.5815 3.83656 25.8643 6.1126C28.1471 8.39539 29.633 11.2658 30.1665 14.413C30.2408 14.8588 30.6258 15.1695 31.0648 15.1695C31.1188 15.1695 31.1661 15.1627 31.2201 15.156C31.7131 15.0817 32.0508 14.6089 31.963 14.1159Z" fill="black"/>
</svg>
