<svg width="25" height="26" viewBox="0 0 25 26" fill="none" xmlns="http://www.w3.org/2000/svg">
<path fill-rule="evenodd" clip-rule="evenodd" d="M10.4019 2.49535C9.8168 1.47151 8.9406 1.61827 8.69721 1.78429C8.5777 1.86581 8.39202 2.06161 8.30932 2.33679C8.2354 2.5827 8.22398 2.95395 8.5366 3.46285C9.27381 4.66293 11.9241 7.96857 13.3855 9.74805C13.7647 10.2098 13.645 10.8945 13.1421 11.2051C12.7233 11.4636 12.1778 11.3719 11.8666 10.9907L5.97585 3.77203C5.8269 3.58386 5.51761 3.28442 5.14974 3.11365C4.80452 2.95339 4.46044 2.92338 4.10302 3.14031C3.84893 3.29454 3.75073 3.53582 3.7965 3.89455C3.84588 4.28165 4.06256 4.68497 4.29346 4.9113C4.30124 4.91893 4.30882 4.92673 4.31622 4.93473L11.3562 12.5463C11.6226 12.8343 11.6701 13.2623 11.4733 13.6017C11.1753 14.1155 10.4684 14.2013 10.0563 13.7737L4.05354 7.54627C3.56374 7.14382 2.92118 7.18177 2.49736 7.62607C2.02168 8.12473 2.04965 8.87094 2.64794 9.46015C2.669 9.48089 2.69757 9.50902 2.7331 9.54398C3.16696 9.97094 4.63696 11.4176 6.10548 12.8901C6.89958 13.6863 7.69553 14.4924 8.32788 15.1499C8.6438 15.4783 8.9215 15.7724 9.13876 16.0111C9.17108 16.0465 9.20278 16.0816 9.23365 16.116C9.27373 16.158 9.31146 16.1984 9.3465 16.2368C9.44969 16.3497 9.59538 16.5143 9.6726 16.6709C9.82709 16.9845 9.71316 17.3643 9.41153 17.5409C9.1099 17.7176 8.72304 17.6313 8.52509 17.3432C8.49385 17.2977 8.40681 17.1917 8.25392 17.0207C8.16721 16.9303 8.06326 16.8257 7.94465 16.7095C7.5998 16.3715 7.15296 15.9559 6.69732 15.5409C5.784 14.7095 4.86088 13.9041 4.69488 13.766C4.45081 13.5631 4.07878 13.426 3.735 13.4145C3.37664 13.4025 3.23137 13.5209 3.1883 13.5936C2.91654 14.0517 2.9851 14.448 3.17816 14.816C3.35442 15.152 3.60058 15.4024 3.7836 15.5885C3.82186 15.6275 3.85738 15.6636 3.88892 15.6971C3.98566 15.8 4.21226 16.0037 4.58449 16.3319C4.64689 16.3868 4.71261 16.4447 4.78146 16.5053C5.10829 16.7931 5.50593 17.1431 5.95482 17.5473C7.04285 18.5275 8.43916 19.8335 9.91098 21.3929C12.0985 23.7107 14.8287 24.3144 15.8419 24.3335C16.2101 24.3404 16.5029 24.6444 16.4959 25.0125C16.4891 25.3807 16.185 25.6735 15.8169 25.6665C14.5017 25.6419 11.4109 24.9247 8.94132 22.3081C7.50256 20.7836 6.13457 19.5039 5.06241 18.538C4.61978 18.1393 4.22878 17.7951 3.90208 17.5076C3.8327 17.4465 3.76621 17.388 3.70276 17.332C3.35417 17.0247 3.0682 16.7705 2.91786 16.6108C2.90546 16.5976 2.88654 16.5787 2.86229 16.5545C2.69586 16.3883 2.27858 15.9713 1.99744 15.4353C1.65524 14.7831 1.46948 13.8777 2.04154 12.9133C2.35996 12.3765 2.90437 12.1516 3.41913 12.0953C2.6625 11.3452 2.05233 10.7447 1.79762 10.494C1.76209 10.4591 1.73349 10.4309 1.71236 10.4101C0.710783 9.42375 0.449423 7.84123 1.53258 6.70575C2.05636 6.15667 2.74485 5.9025 3.42702 5.93699L3.34758 5.85111C2.91444 5.42041 2.56146 4.74979 2.47388 4.06327C2.38184 3.34175 2.58369 2.50279 3.41118 2.00051C4.24804 1.49257 5.08104 1.61177 5.71116 1.90427C6.25688 2.15761 6.68702 2.55211 6.9417 2.84809C6.91406 2.53019 6.94926 2.22963 7.03241 1.95299C7.21484 1.34609 7.6104 0.911647 7.94585 0.682821C8.80193 0.0988606 10.5705 0.103154 11.5595 1.83382C12.2891 3.1107 15.2722 7.26949 16.6962 9.21973C16.8793 9.47036 17.1369 9.76798 17.417 9.96969C17.7045 10.1768 17.9037 10.207 18.0411 10.1667C18.2619 10.102 18.4678 9.89106 18.6435 9.40854C18.7959 8.9903 18.8749 8.51155 18.9511 8.04822C18.9618 7.98345 18.9725 7.91897 18.9833 7.85501C19.0827 7.26373 19.3966 6.41909 19.9807 5.70526C20.5771 4.97627 21.4853 4.35361 22.739 4.33881C23.3519 4.33158 23.8725 4.47947 24.2539 4.81662C24.6367 5.15487 24.7854 5.60046 24.8226 5.9965C24.8593 6.38705 24.7937 6.77203 24.7045 7.08057C24.6167 7.3839 24.4893 7.67157 24.3546 7.86682C24.2233 8.05719 23.8641 8.6637 23.5881 9.4899C23.3122 10.3157 23.1349 11.3144 23.3095 12.3152C23.3662 12.6401 23.4342 12.9769 23.5046 13.3255C23.9082 15.3259 24.3897 17.7119 23.2703 20.4636C22.7531 21.7349 22.0835 22.7649 21.3826 23.5277C20.6915 24.28 19.9341 24.8103 19.2269 25.0153C18.8733 25.1179 18.5035 24.9143 18.401 24.5605C18.2985 24.2069 18.5021 23.8372 18.8557 23.7347C19.2467 23.6213 19.8055 23.2736 20.4009 22.6256C20.9865 21.9883 21.5735 21.0961 22.0353 19.9611C22.9921 17.6091 22.6027 15.6467 22.2069 13.6519C22.1341 13.2847 22.061 12.9164 21.9961 12.5445C21.7707 11.2535 22.0051 10.0201 22.3234 9.06739C22.6417 8.11507 23.0591 7.39665 23.2571 7.10957C23.2871 7.06609 23.3626 6.92106 23.4235 6.71038C23.4829 6.50491 23.5114 6.29458 23.4951 6.12113C23.4794 5.95318 23.4281 5.8661 23.371 5.81567C23.3127 5.76415 23.1538 5.66734 22.7547 5.67205C21.9847 5.68114 21.4221 6.04918 21.0126 6.54963C20.5906 7.06526 20.3633 7.68878 20.2981 8.07629C20.2886 8.13214 20.2789 8.19177 20.2687 8.25453C20.1951 8.70566 20.0951 9.3194 19.8963 9.86493C19.6721 10.4805 19.2543 11.2005 18.4162 11.4463C17.7065 11.6543 17.0726 11.3648 16.6378 11.0516C16.1954 10.7331 15.8411 10.3097 15.6194 10.006C14.2195 8.08887 11.1782 3.85402 10.4019 2.49535Z" fill="black"/>
</svg>
