<svg width="33" height="32" viewBox="0 0 33 32" fill="none" xmlns="http://www.w3.org/2000/svg">
<mask id="path-1-outside-1_1329_20411" maskUnits="userSpaceOnUse" x="0" y="-1" width="33" height="34" fill="black">
<rect fill="white" y="-1" width="33" height="34"/>
<path d="M24.4813 6.79156L17.878 0.1475C17.8315 0.100753 17.7763 0.063655 17.7154 0.0383413C17.6546 0.0130275 17.5893 -2.81379e-06 17.5234 4.55761e-10L3.0625 4.55761e-10C2.51568 0.000628582 1.99144 0.218129 1.60479 0.604787C1.21813 0.991444 1.00063 1.51568 1 2.0625V29.9375C1.00063 30.4843 1.21813 31.0086 1.60479 31.3952C1.99144 31.7819 2.51568 31.9994 3.0625 32H22.5643C23.1111 31.9994 23.6354 31.7819 24.022 31.3952C24.4087 31.0086 24.6262 30.4843 24.6268 29.9375V20.175L31.1448 13.6569C31.6942 13.1074 32.0029 12.3622 32.0029 11.5851C32.0029 10.808 31.6942 10.0627 31.1448 9.51319C30.5953 8.96369 29.85 8.65499 29.0729 8.65499C28.2958 8.65499 27.5505 8.96369 27.001 9.51319L24.6266 11.8876V7.14381C24.6266 7.01181 24.5743 6.88519 24.4813 6.79156ZM25.4025 12.526L28.1319 15.2554L18.5632 24.8242L15.8337 22.0947L25.4025 12.526ZM26.7815 11.1469L29.5109 13.8764L28.839 14.5483L26.1098 11.8188L26.7815 11.1469ZM15.3818 23.0562L17.5917 25.2663L14.8337 25.7806L15.3818 23.0562ZM18.2704 1.96094L22.6392 6.35638H18.2704V1.96094ZM23.6268 29.9375C23.6265 30.2192 23.5145 30.4893 23.3153 30.6885C23.1161 30.8876 22.846 30.9997 22.5643 31H3.0625C2.7808 30.9997 2.51074 30.8876 2.31155 30.6885C2.11236 30.4893 2.00031 30.2192 2 29.9375V2.0625C2.00031 1.7808 2.11236 1.51074 2.31155 1.31155C2.51074 1.11236 2.7808 1.00031 3.0625 1H17.2704V6.85625C17.2704 6.98886 17.3231 7.11604 17.4169 7.2098C17.5107 7.30357 17.6378 7.35625 17.7704 7.35625H23.6267V12.8875L14.6961 21.8183C14.6265 21.888 14.5789 21.9767 14.5595 22.0732L13.7074 26.3094C13.6912 26.3896 13.695 26.4726 13.7184 26.551C13.7418 26.6294 13.7841 26.7008 13.8415 26.7591C13.8989 26.8173 13.9698 26.8606 14.0478 26.8851C14.1259 26.9096 14.2088 26.9146 14.2892 26.8996L18.5779 26.1C18.6771 26.0815 18.7684 26.0334 18.8398 25.9621L23.6268 21.175V29.9375ZM30.4375 10.2204C30.7977 10.5832 30.9999 11.0738 30.9999 11.5851C30.9999 12.0964 30.7977 12.5869 30.4375 12.9498L30.218 13.1693L27.4886 10.4399L27.7081 10.2204C28.0703 9.85896 28.5611 9.65599 29.0728 9.65599C29.5845 9.65599 30.0753 9.85896 30.4375 10.2204ZM13.1275 23.4379C13.1275 23.5705 13.0748 23.6977 12.9811 23.7915C12.8873 23.8853 12.7601 23.9379 12.6275 23.9379H4.82106C4.68845 23.9379 4.56128 23.8853 4.46751 23.7915C4.37374 23.6977 4.32106 23.5705 4.32106 23.4379C4.32106 23.3053 4.37374 23.1782 4.46751 23.0844C4.56128 22.9906 4.68845 22.9379 4.82106 22.9379H12.6273C12.693 22.9379 12.758 22.9508 12.8187 22.9759C12.8794 23.0011 12.9345 23.0379 12.981 23.0843C13.0274 23.1308 13.0643 23.1859 13.0894 23.2466C13.1146 23.3072 13.1275 23.3723 13.1275 23.4379ZM4.32125 19.0804C4.32125 18.9478 4.37393 18.8207 4.4677 18.7269C4.56146 18.6331 4.68864 18.5804 4.82125 18.5804H15.1359C15.2685 18.5804 15.3957 18.6331 15.4895 18.7269C15.5833 18.8207 15.6359 18.9478 15.6359 19.0804C15.6359 19.213 15.5833 19.3402 15.4895 19.434C15.3957 19.5278 15.2685 19.5804 15.1359 19.5804H4.82106C4.68845 19.5804 4.56128 19.5278 4.46751 19.434C4.37374 19.3402 4.32106 19.213 4.32106 19.0804H4.32125ZM4.32125 14.7229C4.32125 14.5903 4.37393 14.4632 4.4677 14.3694C4.56146 14.2756 4.68864 14.2229 4.82125 14.2229H20.8057C20.9384 14.2229 21.0655 14.2756 21.1593 14.3694C21.2531 14.4632 21.3057 14.5903 21.3057 14.7229C21.3057 14.8555 21.2531 14.9827 21.1593 15.0765C21.0655 15.1703 20.9384 15.2229 20.8057 15.2229H4.82106C4.68845 15.2229 4.56128 15.1703 4.46751 15.0765C4.37374 14.9827 4.32106 14.8555 4.32106 14.7229H4.32125ZM4.32125 10.3655C4.32125 10.2329 4.37393 10.1057 4.4677 10.0119C4.56146 9.91818 4.68864 9.8655 4.82125 9.8655H20.8057C20.9384 9.8655 21.0655 9.91818 21.1593 10.0119C21.2531 10.1057 21.3057 10.2329 21.3057 10.3655C21.3057 10.4981 21.2531 10.6253 21.1593 10.7191C21.0655 10.8128 20.9384 10.8655 20.8057 10.8655H4.82106C4.68845 10.8655 4.56128 10.8128 4.46751 10.7191C4.37374 10.6253 4.32106 10.4981 4.32106 10.3655H4.32125ZM4.32125 6.008C4.32125 5.87539 4.37393 5.74821 4.4677 5.65445C4.56146 5.56068 4.68864 5.508 4.82125 5.508H15.4058C15.5384 5.508 15.6655 5.56068 15.7593 5.65445C15.8531 5.74821 15.9058 5.87539 15.9058 6.008C15.9058 6.14061 15.8531 6.26779 15.7593 6.36155C15.6655 6.45532 15.5384 6.508 15.4058 6.508H4.82106C4.68845 6.508 4.56128 6.45532 4.46751 6.36155C4.37374 6.26779 4.32106 6.14061 4.32106 6.008H4.32125Z"/>
</mask>
<path d="M24.4813 6.79156L17.878 0.1475C17.8315 0.100753 17.7763 0.063655 17.7154 0.0383413C17.6546 0.0130275 17.5893 -2.81379e-06 17.5234 4.55761e-10L3.0625 4.55761e-10C2.51568 0.000628582 1.99144 0.218129 1.60479 0.604787C1.21813 0.991444 1.00063 1.51568 1 2.0625V29.9375C1.00063 30.4843 1.21813 31.0086 1.60479 31.3952C1.99144 31.7819 2.51568 31.9994 3.0625 32H22.5643C23.1111 31.9994 23.6354 31.7819 24.022 31.3952C24.4087 31.0086 24.6262 30.4843 24.6268 29.9375V20.175L31.1448 13.6569C31.6942 13.1074 32.0029 12.3622 32.0029 11.5851C32.0029 10.808 31.6942 10.0627 31.1448 9.51319C30.5953 8.96369 29.85 8.65499 29.0729 8.65499C28.2958 8.65499 27.5505 8.96369 27.001 9.51319L24.6266 11.8876V7.14381C24.6266 7.01181 24.5743 6.88519 24.4813 6.79156ZM25.4025 12.526L28.1319 15.2554L18.5632 24.8242L15.8337 22.0947L25.4025 12.526ZM26.7815 11.1469L29.5109 13.8764L28.839 14.5483L26.1098 11.8188L26.7815 11.1469ZM15.3818 23.0562L17.5917 25.2663L14.8337 25.7806L15.3818 23.0562ZM18.2704 1.96094L22.6392 6.35638H18.2704V1.96094ZM23.6268 29.9375C23.6265 30.2192 23.5145 30.4893 23.3153 30.6885C23.1161 30.8876 22.846 30.9997 22.5643 31H3.0625C2.7808 30.9997 2.51074 30.8876 2.31155 30.6885C2.11236 30.4893 2.00031 30.2192 2 29.9375V2.0625C2.00031 1.7808 2.11236 1.51074 2.31155 1.31155C2.51074 1.11236 2.7808 1.00031 3.0625 1H17.2704V6.85625C17.2704 6.98886 17.3231 7.11604 17.4169 7.2098C17.5107 7.30357 17.6378 7.35625 17.7704 7.35625H23.6267V12.8875L14.6961 21.8183C14.6265 21.888 14.5789 21.9767 14.5595 22.0732L13.7074 26.3094C13.6912 26.3896 13.695 26.4726 13.7184 26.551C13.7418 26.6294 13.7841 26.7008 13.8415 26.7591C13.8989 26.8173 13.9698 26.8606 14.0478 26.8851C14.1259 26.9096 14.2088 26.9146 14.2892 26.8996L18.5779 26.1C18.6771 26.0815 18.7684 26.0334 18.8398 25.9621L23.6268 21.175V29.9375ZM30.4375 10.2204C30.7977 10.5832 30.9999 11.0738 30.9999 11.5851C30.9999 12.0964 30.7977 12.5869 30.4375 12.9498L30.218 13.1693L27.4886 10.4399L27.7081 10.2204C28.0703 9.85896 28.5611 9.65599 29.0728 9.65599C29.5845 9.65599 30.0753 9.85896 30.4375 10.2204ZM13.1275 23.4379C13.1275 23.5705 13.0748 23.6977 12.9811 23.7915C12.8873 23.8853 12.7601 23.9379 12.6275 23.9379H4.82106C4.68845 23.9379 4.56128 23.8853 4.46751 23.7915C4.37374 23.6977 4.32106 23.5705 4.32106 23.4379C4.32106 23.3053 4.37374 23.1782 4.46751 23.0844C4.56128 22.9906 4.68845 22.9379 4.82106 22.9379H12.6273C12.693 22.9379 12.758 22.9508 12.8187 22.9759C12.8794 23.0011 12.9345 23.0379 12.981 23.0843C13.0274 23.1308 13.0643 23.1859 13.0894 23.2466C13.1146 23.3072 13.1275 23.3723 13.1275 23.4379ZM4.32125 19.0804C4.32125 18.9478 4.37393 18.8207 4.4677 18.7269C4.56146 18.6331 4.68864 18.5804 4.82125 18.5804H15.1359C15.2685 18.5804 15.3957 18.6331 15.4895 18.7269C15.5833 18.8207 15.6359 18.9478 15.6359 19.0804C15.6359 19.213 15.5833 19.3402 15.4895 19.434C15.3957 19.5278 15.2685 19.5804 15.1359 19.5804H4.82106C4.68845 19.5804 4.56128 19.5278 4.46751 19.434C4.37374 19.3402 4.32106 19.213 4.32106 19.0804H4.32125ZM4.32125 14.7229C4.32125 14.5903 4.37393 14.4632 4.4677 14.3694C4.56146 14.2756 4.68864 14.2229 4.82125 14.2229H20.8057C20.9384 14.2229 21.0655 14.2756 21.1593 14.3694C21.2531 14.4632 21.3057 14.5903 21.3057 14.7229C21.3057 14.8555 21.2531 14.9827 21.1593 15.0765C21.0655 15.1703 20.9384 15.2229 20.8057 15.2229H4.82106C4.68845 15.2229 4.56128 15.1703 4.46751 15.0765C4.37374 14.9827 4.32106 14.8555 4.32106 14.7229H4.32125ZM4.32125 10.3655C4.32125 10.2329 4.37393 10.1057 4.4677 10.0119C4.56146 9.91818 4.68864 9.8655 4.82125 9.8655H20.8057C20.9384 9.8655 21.0655 9.91818 21.1593 10.0119C21.2531 10.1057 21.3057 10.2329 21.3057 10.3655C21.3057 10.4981 21.2531 10.6253 21.1593 10.7191C21.0655 10.8128 20.9384 10.8655 20.8057 10.8655H4.82106C4.68845 10.8655 4.56128 10.8128 4.46751 10.7191C4.37374 10.6253 4.32106 10.4981 4.32106 10.3655H4.32125ZM4.32125 6.008C4.32125 5.87539 4.37393 5.74821 4.4677 5.65445C4.56146 5.56068 4.68864 5.508 4.82125 5.508H15.4058C15.5384 5.508 15.6655 5.56068 15.7593 5.65445C15.8531 5.74821 15.9058 5.87539 15.9058 6.008C15.9058 6.14061 15.8531 6.26779 15.7593 6.36155C15.6655 6.45532 15.5384 6.508 15.4058 6.508H4.82106C4.68845 6.508 4.56128 6.45532 4.46751 6.36155C4.37374 6.26779 4.32106 6.14061 4.32106 6.008H4.32125Z" fill="black"/>
<path d="M24.4813 6.79156L17.878 0.1475C17.8315 0.100753 17.7763 0.063655 17.7154 0.0383413C17.6546 0.0130275 17.5893 -2.81379e-06 17.5234 4.55761e-10L3.0625 4.55761e-10C2.51568 0.000628582 1.99144 0.218129 1.60479 0.604787C1.21813 0.991444 1.00063 1.51568 1 2.0625V29.9375C1.00063 30.4843 1.21813 31.0086 1.60479 31.3952C1.99144 31.7819 2.51568 31.9994 3.0625 32H22.5643C23.1111 31.9994 23.6354 31.7819 24.022 31.3952C24.4087 31.0086 24.6262 30.4843 24.6268 29.9375V20.175L31.1448 13.6569C31.6942 13.1074 32.0029 12.3622 32.0029 11.5851C32.0029 10.808 31.6942 10.0627 31.1448 9.51319C30.5953 8.96369 29.85 8.65499 29.0729 8.65499C28.2958 8.65499 27.5505 8.96369 27.001 9.51319L24.6266 11.8876V7.14381C24.6266 7.01181 24.5743 6.88519 24.4813 6.79156ZM25.4025 12.526L28.1319 15.2554L18.5632 24.8242L15.8337 22.0947L25.4025 12.526ZM26.7815 11.1469L29.5109 13.8764L28.839 14.5483L26.1098 11.8188L26.7815 11.1469ZM15.3818 23.0562L17.5917 25.2663L14.8337 25.7806L15.3818 23.0562ZM18.2704 1.96094L22.6392 6.35638H18.2704V1.96094ZM23.6268 29.9375C23.6265 30.2192 23.5145 30.4893 23.3153 30.6885C23.1161 30.8876 22.846 30.9997 22.5643 31H3.0625C2.7808 30.9997 2.51074 30.8876 2.31155 30.6885C2.11236 30.4893 2.00031 30.2192 2 29.9375V2.0625C2.00031 1.7808 2.11236 1.51074 2.31155 1.31155C2.51074 1.11236 2.7808 1.00031 3.0625 1H17.2704V6.85625C17.2704 6.98886 17.3231 7.11604 17.4169 7.2098C17.5107 7.30357 17.6378 7.35625 17.7704 7.35625H23.6267V12.8875L14.6961 21.8183C14.6265 21.888 14.5789 21.9767 14.5595 22.0732L13.7074 26.3094C13.6912 26.3896 13.695 26.4726 13.7184 26.551C13.7418 26.6294 13.7841 26.7008 13.8415 26.7591C13.8989 26.8173 13.9698 26.8606 14.0478 26.8851C14.1259 26.9096 14.2088 26.9146 14.2892 26.8996L18.5779 26.1C18.6771 26.0815 18.7684 26.0334 18.8398 25.9621L23.6268 21.175V29.9375ZM30.4375 10.2204C30.7977 10.5832 30.9999 11.0738 30.9999 11.5851C30.9999 12.0964 30.7977 12.5869 30.4375 12.9498L30.218 13.1693L27.4886 10.4399L27.7081 10.2204C28.0703 9.85896 28.5611 9.65599 29.0728 9.65599C29.5845 9.65599 30.0753 9.85896 30.4375 10.2204ZM13.1275 23.4379C13.1275 23.5705 13.0748 23.6977 12.9811 23.7915C12.8873 23.8853 12.7601 23.9379 12.6275 23.9379H4.82106C4.68845 23.9379 4.56128 23.8853 4.46751 23.7915C4.37374 23.6977 4.32106 23.5705 4.32106 23.4379C4.32106 23.3053 4.37374 23.1782 4.46751 23.0844C4.56128 22.9906 4.68845 22.9379 4.82106 22.9379H12.6273C12.693 22.9379 12.758 22.9508 12.8187 22.9759C12.8794 23.0011 12.9345 23.0379 12.981 23.0843C13.0274 23.1308 13.0643 23.1859 13.0894 23.2466C13.1146 23.3072 13.1275 23.3723 13.1275 23.4379ZM4.32125 19.0804C4.32125 18.9478 4.37393 18.8207 4.4677 18.7269C4.56146 18.6331 4.68864 18.5804 4.82125 18.5804H15.1359C15.2685 18.5804 15.3957 18.6331 15.4895 18.7269C15.5833 18.8207 15.6359 18.9478 15.6359 19.0804C15.6359 19.213 15.5833 19.3402 15.4895 19.434C15.3957 19.5278 15.2685 19.5804 15.1359 19.5804H4.82106C4.68845 19.5804 4.56128 19.5278 4.46751 19.434C4.37374 19.3402 4.32106 19.213 4.32106 19.0804H4.32125ZM4.32125 14.7229C4.32125 14.5903 4.37393 14.4632 4.4677 14.3694C4.56146 14.2756 4.68864 14.2229 4.82125 14.2229H20.8057C20.9384 14.2229 21.0655 14.2756 21.1593 14.3694C21.2531 14.4632 21.3057 14.5903 21.3057 14.7229C21.3057 14.8555 21.2531 14.9827 21.1593 15.0765C21.0655 15.1703 20.9384 15.2229 20.8057 15.2229H4.82106C4.68845 15.2229 4.56128 15.1703 4.46751 15.0765C4.37374 14.9827 4.32106 14.8555 4.32106 14.7229H4.32125ZM4.32125 10.3655C4.32125 10.2329 4.37393 10.1057 4.4677 10.0119C4.56146 9.91818 4.68864 9.8655 4.82125 9.8655H20.8057C20.9384 9.8655 21.0655 9.91818 21.1593 10.0119C21.2531 10.1057 21.3057 10.2329 21.3057 10.3655C21.3057 10.4981 21.2531 10.6253 21.1593 10.7191C21.0655 10.8128 20.9384 10.8655 20.8057 10.8655H4.82106C4.68845 10.8655 4.56128 10.8128 4.46751 10.7191C4.37374 10.6253 4.32106 10.4981 4.32106 10.3655H4.32125ZM4.32125 6.008C4.32125 5.87539 4.37393 5.74821 4.4677 5.65445C4.56146 5.56068 4.68864 5.508 4.82125 5.508H15.4058C15.5384 5.508 15.6655 5.56068 15.7593 5.65445C15.8531 5.74821 15.9058 5.87539 15.9058 6.008C15.9058 6.14061 15.8531 6.26779 15.7593 6.36155C15.6655 6.45532 15.5384 6.508 15.4058 6.508H4.82106C4.68845 6.508 4.56128 6.45532 4.46751 6.36155C4.37374 6.26779 4.32106 6.14061 4.32106 6.008H4.32125Z" stroke="black" stroke-width="0.4" mask="url(#path-1-outside-1_1329_20411)"/>
</svg>
