<svg width="32" height="21" viewBox="0 0 32 21" fill="none" xmlns="http://www.w3.org/2000/svg">
<path d="M32 0.0958118H25.0811V4.13344H32V0.0958118ZM32 5.71887H25.0811V9.7565H32V5.71887ZM32 11.3392H25.0811V15.3769H32V11.3392ZM6.91881 16.9624H0V21H6.91881V16.9624ZM15.2782 16.9624H8.35944V21H15.2782V16.9624ZM23.6404 16.9624H16.7216V21H23.6404V16.9624ZM32 16.9624H25.0811V21H32V16.9624ZM23.6404 11.3392H16.7216V15.3769H23.6404V11.3392ZM15.2782 11.3392H8.35944V15.3769H15.2782V11.3392ZM15.2782 5.71887H8.35944V9.7565H15.2782V5.71887Z" fill="black"/>
</svg>
