<svg width="34" height="34" viewBox="0 0 34 34" fill="none" xmlns="http://www.w3.org/2000/svg">
<path d="M20.3945 13.7715L20.3945 13.7712L20.3874 13.7712L18.6344 13.7724V12.6044C18.6344 12.4815 18.7365 12.3794 18.8594 12.3794H20.4219C20.7896 12.3794 21.0875 12.0815 21.0875 11.7137V9.40812C21.0875 9.0404 20.7896 8.7425 20.4219 8.7425H17.7819C15.9735 8.7425 14.5069 10.2085 14.5069 12.0169V13.7712H13.5781C13.2117 13.7712 12.9125 14.0703 12.9125 14.4362V16.7425C12.9125 17.1095 13.2103 17.4081 13.5781 17.4081H14.5069V24.5919C14.5069 24.959 14.8054 25.2575 15.1725 25.2575L17.9694 25.2569C18.3359 25.2569 18.6344 24.9577 18.6344 24.5919V17.4081H20.1925C20.5378 17.4081 20.8265 17.1413 20.8553 16.7978C20.876 16.553 20.8977 16.3072 20.9195 16.0609C20.9672 15.5216 21.0151 14.9802 21.0529 14.4433L21.0531 14.4433V14.4362C21.0531 14.0403 20.7477 13.7962 20.3945 13.7715ZM17.7956 16.4694H17.6956V16.5694V24.32H15.4456V16.5694V16.4694H15.3456H13.8513V14.7094H15.3456H15.4456V14.6094V12.0169C15.4456 10.7271 16.4915 9.68125 17.7819 9.68125H20.1488V11.4406H18.8594C18.2166 11.4406 17.6956 11.9616 17.6956 12.6044V14.6081V14.7081H17.7956H20.0906L19.9418 16.4694H17.7956ZM33.1 17C33.1 8.10852 25.8915 0.9 17 0.9C8.10852 0.9 0.9 8.10852 0.9 17C0.9 25.8915 8.10852 33.1 17 33.1C25.8915 33.1 33.1 25.8915 33.1 17ZM1.83813 17C1.83813 8.62648 8.62648 1.83813 17 1.83813C25.3735 1.83813 32.1619 8.62648 32.1619 17C32.1619 25.3735 25.3735 32.1619 17 32.1619C8.62648 32.1619 1.83813 25.3735 1.83813 17Z" fill="black" stroke="black" stroke-width="0.2"/>
</svg>
