<svg width="32" height="32" viewBox="0 0 32 32" fill="none" xmlns="http://www.w3.org/2000/svg">
<path d="M28.6667 32H3.33333C2.4495 31.9993 1.60206 31.6479 0.977091 31.0229C0.352122 30.3979 0.000706223 29.5505 0 28.6667L0 3.33333C0 1.49467 1.49467 0 3.33333 0H28.6667C30.5053 0 32 1.49467 32 3.33333V28.6667C32 30.5053 30.5053 32 28.6667 32ZM3.33333 1.33333C2.23067 1.33333 1.33333 2.23067 1.33333 3.33333V28.6667C1.33333 29.7693 2.23067 30.6667 3.33333 30.6667H28.6667C29.7693 30.6667 30.6667 29.7693 30.6667 28.6667V3.33333C30.6667 2.23067 29.7693 1.33333 28.6667 1.33333H3.33333Z" fill="black"/>
<path d="M26 28H6C4.89733 28 4 27.1026 4 26V20.6666C4 19.564 4.89733 18.6666 6 18.6666H26C27.1027 18.6666 28 19.564 28 20.6666V26C28 27.1026 27.1027 28 26 28ZM6 20C5.63333 20 5.33333 20.3 5.33333 20.6666V26C5.33333 26.3666 5.63333 26.6666 6 26.6666H26C26.3667 26.6666 26.6667 26.3666 26.6667 26V20.6666C26.6667 20.3 26.3667 20 26 20H6Z" fill="black"/>
</svg>
