<svg width="34" height="34" viewBox="0 0 34 34" fill="none" xmlns="http://www.w3.org/2000/svg">
<path d="M4.33321 33.1H4.33333H29.6667C31.5592 33.1 33.1 31.5606 33.1 29.6667V4.33333C33.1 2.43941 31.5592 0.9 29.6667 0.9H4.33333C2.4408 0.9 0.9 2.43941 0.9 4.33333L0.9 29.6667L0.9 29.6668C0.90109 30.577 1.26315 31.4496 1.90677 32.0932C2.55039 32.7368 3.423 33.0989 4.33321 33.1ZM2.43333 4.33333C2.43333 3.2859 3.2859 2.43333 4.33333 2.43333H29.6667C30.7141 2.43333 31.5667 3.2859 31.5667 4.33333V29.6667C31.5667 30.7141 30.7141 31.5667 29.6667 31.5667H4.33333C3.2859 31.5667 2.43333 30.7141 2.43333 29.6667V4.33333Z" fill="black" stroke="black" stroke-width="0.2"/>
<path d="M7 14.4333H27C28.1579 14.4333 29.1 13.4912 29.1 12.3333V7C29.1 5.8421 28.1579 4.9 27 4.9H7C5.8421 4.9 4.9 5.8421 4.9 7V12.3333C4.9 13.4912 5.8421 14.4333 7 14.4333ZM6.59931 6.59931C6.70558 6.49304 6.84971 6.43333 7 6.43333H27C27.1503 6.43333 27.2944 6.49304 27.4007 6.59931C27.507 6.70558 27.5667 6.84971 27.5667 7V12.3333C27.5667 12.4836 27.507 12.6278 27.4007 12.734C27.2944 12.8403 27.1503 12.9 27 12.9H7C6.84971 12.9 6.70558 12.8403 6.59931 12.734C6.49304 12.6278 6.43333 12.4836 6.43333 12.3333V7C6.43333 6.84971 6.49304 6.70558 6.59931 6.59931Z" fill="black" stroke="black" stroke-width="0.2"/>
</svg>
