<svg width="28" height="32" viewBox="0 0 28 32" fill="none" xmlns="http://www.w3.org/2000/svg">
<path d="M13.9358 7.65208H13.24V6.9566C13.24 2.40874 15.6488 0 20.1966 0H20.8922V0.695739C20.8922 5.24334 18.4835 7.65208 13.9358 7.65208ZM19.4747 1.41743C16.4487 1.62613 14.8662 3.20863 14.6486 6.24352C17.7271 6.03489 19.2747 4.48702 19.4747 1.41743ZM19.5009 32.0001C18.3804 31.9993 17.2767 31.7278 16.2836 31.2088C15.5628 30.8228 14.7578 30.6209 13.9401 30.6209C13.1225 30.6209 12.3175 30.8228 11.5966 31.2088C10.6035 31.7278 9.49966 31.9992 8.37907 32.0001C3.70103 32.0001 0.03125 25.5825 0.03125 17.3914C0.03125 12.4086 3.77923 8.34782 8.37907 8.34782C9.2404 8.34782 10.0959 8.49176 10.9095 8.77402L13.4922 9.66945C13.788 9.77161 14.1095 9.77161 14.4053 9.66945L16.9791 8.77402C17.7902 8.49306 18.6425 8.34903 19.5009 8.34782C22.0138 8.34782 24.3616 9.55662 25.9618 11.6609L26.5704 12.4696L25.5964 12.7477C23.0958 13.4684 21.4302 15.8279 21.5888 18.4257C21.7473 21.0234 23.6875 23.1629 26.2573 23.5738L27.0488 23.7042L26.8053 24.4695C25.3618 29.113 22.5531 32.0001 19.5009 32.0001ZM13.9358 29.2174C14.9791 29.2256 16.0051 29.4851 16.9268 29.974C17.7201 30.3928 18.604 30.6107 19.501 30.6086C21.7792 30.6086 23.9444 28.3912 25.2487 24.7739C22.2533 23.9335 20.1865 21.1979 20.1966 18.0869C20.2086 15.3818 21.78 12.9265 24.2312 11.7827C22.9531 10.4783 21.2748 9.73904 19.501 9.73904C18.7965 9.7392 18.0971 9.85681 17.4313 10.087L14.8488 10.9825C14.2599 11.1847 13.6203 11.1847 13.0314 10.9825L10.4401 10.087C9.77435 9.85669 9.07484 9.73908 8.3704 9.73904C4.53562 9.73904 1.41405 13.1739 1.41405 17.3914C1.41405 24.5566 4.59646 30.6086 8.3704 30.6086C9.26742 30.6109 10.1513 30.393 10.9445 29.974C11.8663 29.4851 12.8924 29.2255 13.9358 29.2174Z" fill="black"/>
</svg>
