<svg width="34" height="34" viewBox="0 0 34 34" fill="none" xmlns="http://www.w3.org/2000/svg">
<path d="M23.8231 18.1244V23.8281H21.6825V19.1706C21.6825 18.5052 21.5597 17.8594 21.2411 17.3785C20.9205 16.8944 20.4049 16.5825 19.6344 16.5825C18.8563 16.5825 18.2929 16.8707 17.9254 17.3426C17.5593 17.8126 17.3919 18.4593 17.3919 19.1706V23.8269H15.3588V14.9963H17.3919V17.3188L17.4857 17.3428L18.1776 16.0809L18.1778 16.0805C18.6457 15.209 19.7576 14.7013 20.7244 14.7013C21.792 14.7013 22.564 15.0542 23.0701 15.6537C23.5773 16.2545 23.8231 17.1098 23.8231 18.1244ZM18.18 24.665H18.23V24.615V19.1706C18.23 18.6786 18.3156 18.2406 18.5321 17.9268C18.7463 17.6164 19.0933 17.4206 19.6344 17.4206C19.8932 17.4206 20.0958 17.476 20.2548 17.5701C20.4137 17.6641 20.5321 17.7986 20.6195 17.9615C20.7953 18.2891 20.8444 18.7286 20.8444 19.1706V24.6138V24.6638L20.8944 24.6637L24.6113 24.6631L24.6612 24.6631V24.6131V18.1244C24.6612 16.8896 24.3288 15.8239 23.6678 15.0662C23.006 14.3075 22.0197 13.8631 20.7244 13.8631C19.7926 13.8631 18.9365 14.1642 18.23 14.7626V14.2081V14.1581H18.18H14.5706H14.5206V14.2081V24.615V24.665H14.5706H18.18ZM9.615 24.615V24.665H9.665H13.3956H13.4456V24.615V14.2081V14.1581H13.3956H9.665H9.615V14.2081V24.615ZM33.0387 16.9944C33.0387 8.13364 25.8551 0.95 16.9944 0.95C8.13364 0.95 0.95 8.13364 0.95 16.9944C0.95 25.8551 8.13364 33.0387 16.9944 33.0387C25.8551 33.0387 33.0387 25.8551 33.0387 16.9944ZM12.6075 14.9963V23.8269H10.4531V14.9963H12.6075ZM12.8669 11.5269C12.8669 12.2769 12.2691 12.8925 11.5163 12.8925C10.7628 12.8925 10.1656 12.2769 10.1656 11.5269C10.1656 10.7762 10.7634 10.1619 11.5163 10.1619C12.2691 10.1619 12.8669 10.7762 12.8669 11.5269ZM9.3275 11.5269C9.3275 12.7352 10.3025 13.7306 11.5163 13.7306C12.7294 13.7306 13.705 12.7346 13.705 11.5269C13.705 10.3185 12.7294 9.32375 11.5163 9.32375C10.3025 9.32375 9.3275 10.3185 9.3275 11.5269ZM1.78812 16.9944C1.78812 8.59637 8.59636 1.78875 16.9944 1.78875C25.3924 1.78875 32.2006 8.59637 32.2006 16.9944C32.2006 25.3924 25.3924 32.2 16.9944 32.2C8.59636 32.2 1.78812 25.3924 1.78812 16.9944Z" fill="black" stroke="black" stroke-width="0.1"/>
</svg>
