<svg width="32" height="32" viewBox="0 0 32 32" fill="none" xmlns="http://www.w3.org/2000/svg">
<path d="M18.6181 14.6168C18.4561 14.6171 18.2955 14.5853 18.1458 14.5233C17.9961 14.4612 17.8601 14.3702 17.7458 14.2553C15.8216 12.3311 12.6907 12.3305 10.7659 14.2553C10.6521 14.3732 10.5159 14.4672 10.3654 14.5318C10.2148 14.5965 10.0529 14.6305 9.88911 14.6319C9.72528 14.6334 9.5628 14.6022 9.41117 14.5401C9.25953 14.4781 9.12177 14.3865 9.00592 14.2706C8.89007 14.1548 8.79845 14.017 8.73641 13.8654C8.67437 13.7137 8.64315 13.5512 8.64458 13.3874C8.646 13.2236 8.68004 13.0617 8.7447 12.9111C8.80937 12.7606 8.90337 12.6245 9.02121 12.5106C11.9078 9.62342 16.6045 9.62404 19.4905 12.5106C19.663 12.6832 19.7804 12.903 19.828 13.1423C19.8756 13.3816 19.8512 13.6297 19.7578 13.8551C19.6644 14.0805 19.5063 14.2732 19.3035 14.4088C19.1006 14.5444 18.8621 14.6168 18.6181 14.6168ZM17.7458 21.6553C15.85 21.6553 13.9542 20.9335 12.5112 19.4906C12.3933 19.3767 12.2993 19.2406 12.2347 19.09C12.17 18.9395 12.136 18.7776 12.1345 18.6138C12.1331 18.4499 12.1643 18.2875 12.2264 18.1358C12.2884 17.9842 12.38 17.8464 12.4959 17.7306C12.6117 17.6147 12.7495 17.5231 12.9011 17.4611C13.0528 17.399 13.2152 17.3678 13.3791 17.3692C13.5429 17.3707 13.7048 17.4047 13.8553 17.4694C14.0059 17.534 14.142 17.628 14.2558 17.7459C16.18 19.6701 19.3109 19.6707 21.2357 17.7459C21.3496 17.628 21.4857 17.534 21.6363 17.4694C21.7868 17.4047 21.9487 17.3707 22.1125 17.3692C22.2764 17.3678 22.4388 17.399 22.5905 17.4611C22.7421 17.5231 22.8799 17.6147 22.9957 17.7306C23.1116 17.8464 23.2032 17.9842 23.2652 18.1358C23.3273 18.2875 23.3585 18.4499 23.3571 18.6138C23.3556 18.7776 23.3216 18.9395 23.2569 19.09C23.1923 19.2406 23.0983 19.3767 22.9804 19.4906C22.2934 20.1783 21.4773 20.7235 20.579 21.095C19.6807 21.4665 18.7179 21.6569 17.7458 21.6553Z" fill="black"/>
<path d="M22.1074 19.8514C21.8634 19.8513 21.6249 19.7789 21.422 19.6434C21.2192 19.5078 21.0611 19.3151 20.9677 19.0897C20.8743 18.8642 20.8499 18.6162 20.8975 18.3769C20.9451 18.1376 21.0626 17.9177 21.2351 17.7452L28.1274 10.8529C28.2412 10.735 28.3773 10.641 28.5279 10.5764C28.6784 10.5117 28.8403 10.4777 29.0041 10.4763C29.168 10.4748 29.3304 10.506 29.4821 10.5681C29.6337 10.6301 29.7715 10.7217 29.8873 10.8376C30.0032 10.9534 30.0948 11.0912 30.1568 11.2428C30.2189 11.3945 30.2501 11.557 30.2487 11.7208C30.2472 11.8846 30.2132 12.0465 30.1485 12.1971C30.0839 12.3476 29.9899 12.4837 29.872 12.5976L22.9797 19.4899C22.8654 19.6047 22.7294 19.6958 22.5797 19.7578C22.43 19.8199 22.2695 19.8517 22.1074 19.8514ZM11.7257 30.233C11.4818 30.233 11.2433 30.1606 11.0404 30.025C10.8375 29.8894 10.6794 29.6967 10.5861 29.4713C10.4927 29.2459 10.4683 28.9978 10.5159 28.7585C10.5634 28.5192 10.6809 28.2994 10.8534 28.1268L14.7061 24.2741C14.8199 24.1563 14.9561 24.0623 15.1066 23.9976C15.2572 23.933 15.4191 23.8989 15.5829 23.8975C15.7467 23.8961 15.9092 23.9273 16.0608 23.9893C16.2125 24.0514 16.3502 24.143 16.4661 24.2588C16.5819 24.3747 16.6736 24.5124 16.7356 24.6641C16.7976 24.8157 16.8288 24.9782 16.8274 25.142C16.826 25.3059 16.792 25.4678 16.7273 25.6183C16.6626 25.7688 16.5686 25.905 16.4508 26.0188L12.5981 29.8715C12.4837 29.9864 12.3478 30.0774 12.1981 30.1395C12.0483 30.2015 11.8878 30.2333 11.7257 30.233ZM3.00117 21.5084C2.75717 21.5084 2.51867 21.436 2.31581 21.3004C2.11296 21.1648 1.95485 20.9722 1.86149 20.7467C1.76812 20.5213 1.74369 20.2733 1.79127 20.034C1.83886 19.7946 1.95633 19.5748 2.12883 19.4023L9.02114 12.5106C9.13496 12.3927 9.27111 12.2987 9.42165 12.2341C9.57218 12.1694 9.73409 12.1354 9.89792 12.1339C10.0617 12.1325 10.2242 12.1637 10.3759 12.2258C10.5275 12.2878 10.6653 12.3794 10.7811 12.4953C10.897 12.6111 10.9886 12.7489 11.0506 12.9005C11.1126 13.0522 11.1439 13.2146 11.1424 13.3785C11.141 13.5423 11.107 13.7042 11.0423 13.8547C10.9777 14.0053 10.8837 14.1414 10.7658 14.2552L3.8735 21.1469C3.63229 21.3875 3.31642 21.5084 3.00117 21.5084ZM16.4224 8.08782C16.1784 8.08777 15.9399 8.01538 15.7371 7.87979C15.5342 7.74421 15.3761 7.55153 15.2827 7.32611C15.1894 7.10068 15.1649 6.85264 15.2125 6.61333C15.2601 6.37402 15.3776 6.15419 15.5501 5.98163L19.4028 2.12831C19.6342 1.89687 19.9481 1.76685 20.2754 1.76685C20.6027 1.76685 20.9166 1.89687 21.1481 2.12831C21.3795 2.35975 21.5095 2.67364 21.5095 3.00095C21.5095 3.32825 21.3795 3.64215 21.1481 3.87359L17.2954 7.72692C17.0637 7.95808 16.7497 8.08787 16.4224 8.08782Z" fill="black"/>
<path d="M7.36302 32C5.45487 32 3.54671 31.2905 2.1284 29.8716C-0.709466 27.0337 -0.709466 22.2396 2.1284 19.4017C2.24222 19.2839 2.37837 19.1899 2.5289 19.1252C2.67944 19.0606 2.84134 19.0265 3.00517 19.0251C3.169 19.0237 3.33148 19.0549 3.48311 19.1169C3.63475 19.179 3.77251 19.2706 3.88836 19.3864C4.00421 19.5023 4.09583 19.6401 4.15787 19.7917C4.21991 19.9433 4.25112 20.1058 4.2497 20.2696C4.24828 20.4335 4.21424 20.5954 4.14958 20.7459C4.08491 20.8964 3.99091 21.0326 3.87307 21.1464C1.98157 23.0379 1.98157 26.2348 3.87307 28.1263C5.76456 30.0178 8.96148 30.0178 10.853 28.1263C10.9668 28.0085 11.1029 27.9145 11.2535 27.8498C11.404 27.7851 11.5659 27.7511 11.7298 27.7497C11.8936 27.7483 12.0561 27.7795 12.2077 27.8415C12.3593 27.9036 12.4971 27.9952 12.6129 28.111C12.7288 28.2269 12.8204 28.3646 12.8824 28.5163C12.9445 28.6679 12.9757 28.8304 12.9743 28.9942C12.9729 29.158 12.9388 29.3199 12.8742 29.4705C12.8095 29.621 12.7155 29.7572 12.5976 29.871C11.1793 31.2905 9.27118 32 7.36302 32ZM28.9993 12.9592C28.7553 12.9591 28.5168 12.8867 28.3139 12.7511C28.1111 12.6156 27.9529 12.4229 27.8596 12.1975C27.7662 11.972 27.7418 11.724 27.7894 11.4847C27.837 11.2454 27.9544 11.0255 28.1269 10.853C30.0184 8.96148 30.0184 5.76456 28.1269 3.87307C26.2354 1.98157 23.0385 1.98157 21.147 3.87307C21.0332 3.99091 20.8971 4.08491 20.7465 4.14958C20.596 4.21424 20.4341 4.24828 20.2702 4.2497C20.1064 4.25112 19.9439 4.21991 19.7923 4.15787C19.6407 4.09583 19.5029 4.00421 19.3871 3.88836C19.2712 3.77251 19.1796 3.63475 19.1175 3.48311C19.0555 3.33148 19.0243 3.169 19.0257 3.00517C19.0271 2.84134 19.0612 2.67944 19.1258 2.5289C19.1905 2.37837 19.2845 2.24222 19.4024 2.1284C22.2402 -0.709466 27.0344 -0.709466 29.8722 2.1284C32.7101 4.96626 32.7101 9.7604 29.8722 12.5983C29.631 12.8389 29.3151 12.9592 28.9993 12.9592Z" fill="black"/>
</svg>
