<svg width="32" height="24" viewBox="0 0 32 24" fill="none" xmlns="http://www.w3.org/2000/svg">
<path d="M29.3333 0H2.66669C1.19594 0 0 1.19594 0 2.66669V21.3334C0 22.8041 1.19594 24 2.66669 24H29.3334C30.8041 24 32 22.8041 32 21.3333V2.66669C32 1.19594 30.8041 0 29.3333 0ZM2.66669 1.33331H29.3334C29.4316 1.33331 29.5182 1.36913 29.6104 1.38938C27.3017 3.50231 19.6464 10.5056 16.9675 12.9193C16.7579 13.1081 16.42 13.3333 16.0001 13.3333C15.5801 13.3333 15.2423 13.1081 15.0319 12.9186C12.3533 10.5053 4.69756 3.50169 2.38925 1.3895C2.48163 1.36925 2.56838 1.33331 2.66669 1.33331ZM1.33331 21.3333V2.66669C1.33331 2.53606 1.37269 2.41756 1.40794 2.29819C3.17494 3.91544 8.51644 8.80194 11.9799 11.9515C8.52769 14.9169 3.18481 19.9824 1.40375 21.6808C1.37231 21.5674 1.33331 21.4566 1.33331 21.3333ZM29.3333 22.6667H2.66669C2.56019 22.6667 2.4655 22.6296 2.36606 22.6058C4.2065 20.8513 9.58337 15.7567 12.9749 12.8552C13.3625 13.2071 13.7506 13.5583 14.1393 13.9089C14.6888 14.405 15.332 14.6667 16 14.6667C16.668 14.6667 17.3112 14.4049 17.86 13.9095C18.2489 13.5587 18.6372 13.2073 19.0251 12.8552C22.4168 15.7564 27.7929 20.8506 29.6339 22.6058C29.5345 22.6296 29.4399 22.6667 29.3333 22.6667ZM30.6667 21.3333C30.6667 21.4565 30.6277 21.5674 30.5963 21.6808C28.8146 19.9816 23.4723 14.9166 20.0201 11.9516C23.4837 8.802 28.8244 3.91594 30.5921 2.29806C30.6273 2.41744 30.6667 2.536 30.6667 2.66663V21.3333Z" fill="black"/>
</svg>
