<svg width="33" height="32" viewBox="0 0 33 32" fill="none" xmlns="http://www.w3.org/2000/svg">
<path d="M16.7877 9.45455L15.8568 9.57093C15.2718 9.68094 14.7042 9.8693 14.1695 10.1309C12.9492 10.7729 11.9902 11.8194 11.4568 13.0909C11.3849 13.3294 11.329 13.5723 11.2895 13.8182C10.8819 15.2662 11.4081 16.8159 12.6132 17.7164C12.795 17.8254 13.2168 18.0291 13.3404 17.76C13.3974 17.595 13.4364 17.4243 13.4568 17.2509C13.5269 17.1053 13.5665 16.9469 13.5732 16.7854C13.5295 16.5454 13.275 16.4 13.1659 16.2036C12.9866 15.8078 12.8736 15.3852 12.8314 14.9527V14.7417C12.8854 12.9562 14.1375 11.4321 15.8786 11.0327C16.4233 10.8855 16.991 10.8435 17.5514 10.9091L18.3586 11.0472C18.8141 11.1662 19.2369 11.3861 19.5957 11.6908C19.9546 11.9955 20.2402 12.3771 20.4314 12.8072C20.6852 13.5539 20.7354 14.3547 20.5768 15.1272C20.4968 15.4618 20.5114 15.7527 20.4095 16.0582C20.0386 17.1854 19.4932 18.24 18.2641 18.5164C17.5956 18.6911 16.9014 18.3424 16.6423 17.7018C16.5501 17.5071 16.5172 17.2896 16.5477 17.0764C16.7587 16.16 17.0714 15.3454 17.275 14.4291C17.5259 13.7511 17.1796 12.998 16.5015 12.7471C16.4665 12.7341 16.431 12.7226 16.395 12.7127C15.5514 12.5091 14.904 13.2946 14.6786 13.8037C14.4679 14.3427 14.4174 14.9312 14.5332 15.4982C14.6559 15.7443 14.744 16.0062 14.795 16.2764C14.635 17.0037 14.4459 17.731 14.2495 18.4582C14.0532 19.1855 13.9295 19.9128 13.7259 20.6401C13.6314 20.9601 13.6387 21.3019 13.5587 21.6364V22.1237C13.5083 22.5092 13.5255 22.9005 13.6096 23.2801C13.6532 23.4764 13.6096 23.7164 13.6824 23.8619C13.6792 23.9264 13.6971 23.9902 13.7333 24.0437C14.0315 24.0437 14.4605 23.2509 14.5915 23.0255C14.8748 22.5749 15.1182 22.1003 15.3187 21.6073C15.5151 21.1491 15.5442 20.6401 15.6969 20.1527C15.8509 19.7513 15.9606 19.3343 16.0242 18.9091C16.1185 19.1156 16.2766 19.2863 16.4751 19.3964C16.8204 19.6406 17.2128 19.81 17.6273 19.8939C18.0418 19.9778 18.4693 19.9743 18.8824 19.8836C19.8979 19.6864 20.8104 19.1348 21.4569 18.3272C21.8964 17.7292 22.2354 17.0635 22.4605 16.3563C22.5842 15.9927 22.606 15.5854 22.7005 15.1999C22.8572 14.2566 22.7333 13.288 22.3442 12.4145C21.5077 10.5164 19.6895 9.41093 16.7877 9.45455Z" fill="black"/>
<path d="M16.9766 0C8.14 0 0.976562 7.16344 0.976562 16C0.976562 24.8366 8.14 32 16.9766 32C25.8131 32 32.9766 24.8366 32.9766 16C32.9766 7.16344 25.8131 0 16.9766 0ZM16.9766 30.5454C8.94331 30.5454 2.43113 24.0332 2.43113 16C2.43113 7.96675 8.94331 1.45456 16.9766 1.45456C25.0098 1.45456 31.522 7.96675 31.522 16C31.522 24.0332 25.0098 30.5454 16.9766 30.5454Z" fill="black"/>
</svg>
