<svg width="33" height="34" viewBox="0 0 33 34" fill="none" xmlns="http://www.w3.org/2000/svg">
<path d="M20.354 15.8448H20.3479C18.9051 15.8448 17.7354 14.6661 17.7354 13.212V3.63288C17.7354 2.17877 18.9051 1.00001 20.3479 1.00001H20.354C21.7969 1.00001 22.9666 2.17877 22.9666 3.63288V13.212C22.9666 14.6661 21.7969 15.8448 20.354 15.8448Z" stroke="black" stroke-miterlimit="10" stroke-linecap="round" stroke-linejoin="round"/>
<path d="M12.6458 18.1552H12.6518C14.0947 18.1552 15.2644 19.3339 15.2644 20.788V30.3671C15.2644 31.8212 14.0947 33 12.6518 33H12.6458C11.2029 33 10.0332 31.8212 10.0332 30.3671V20.788C10.0332 19.3339 11.2029 18.1552 12.6458 18.1552Z" stroke="black" stroke-miterlimit="10" stroke-linecap="round" stroke-linejoin="round"/>
<path d="M15.2644 13.0973V13.099C15.2644 14.551 14.0964 15.728 12.6557 15.728H3.10874C1.66798 15.728 0.5 14.551 0.5 13.099V13.0973C0.5 11.6454 1.66798 10.4683 3.10874 10.4683H12.6557C14.0964 10.4683 15.2644 11.6454 15.2644 13.0973Z" stroke="black" stroke-miterlimit="10" stroke-linecap="round" stroke-linejoin="round"/>
<path d="M28.7119 15.6909H25.9004V12.2238C25.9004 10.6627 27.1562 9.39705 28.7054 9.39705H28.7119C30.261 9.39705 31.5169 10.6627 31.5169 12.2238V12.8641C31.5169 14.4253 30.261 15.6909 28.7119 15.6909Z" stroke="black" stroke-miterlimit="10" stroke-linecap="round" stroke-linejoin="round"/>
<path d="M4.28843 18.3092H7.09991V21.7762C7.09991 23.3374 5.84405 24.603 4.29487 24.603H4.28843C2.73925 24.603 1.4834 23.3374 1.4834 21.7762V21.1359C1.4834 19.5748 2.73925 18.3092 4.28843 18.3092Z" stroke="black" stroke-miterlimit="10" stroke-linecap="round" stroke-linejoin="round"/>
<path d="M11.9544 7.89288H14.7659V4.42583C14.7659 2.86468 13.51 1.59908 11.9609 1.59908H11.9544C10.4053 1.59908 9.14941 2.86468 9.14941 4.42583V5.06613C9.14941 6.62728 10.4053 7.89288 11.9544 7.89288Z" stroke="black" stroke-miterlimit="10" stroke-linecap="round" stroke-linejoin="round"/>
<path d="M21.0458 26.1071H18.2344V29.5742C18.2344 31.1353 19.4902 32.4009 21.0393 32.4009H21.0458C22.595 32.4009 23.8508 31.1353 23.8508 29.5742V28.9339C23.8508 27.3727 22.595 26.1071 21.0458 26.1071Z" stroke="black" stroke-miterlimit="10" stroke-linecap="round" stroke-linejoin="round"/>
<path d="M22.2836 23.5317H20.3442C18.9033 23.5317 17.7354 22.3546 17.7354 20.9027V20.901C17.7354 19.449 18.9033 18.272 20.3442 18.272H29.891C31.3318 18.272 32.4998 19.449 32.4998 20.901V20.9027C32.4998 22.3546 31.3318 23.5317 29.891 23.5317H28.1641" stroke="black" stroke-miterlimit="10" stroke-linecap="round" stroke-linejoin="round"/>
</svg>
