<svg width="32" height="28" viewBox="0 0 32 28" fill="none" xmlns="http://www.w3.org/2000/svg">
<path d="M27.9993 0H3.99935C3.11562 0.00105857 2.26839 0.352588 1.6435 0.97748C1.0186 1.60237 0.667074 2.4496 0.666016 3.33333V18C0.667074 18.8837 1.0186 19.731 1.6435 20.3559C2.26839 20.9807 3.11562 21.3323 3.99935 21.3333H5.33268V26.6367C5.3301 26.9085 5.40941 27.1749 5.5603 27.401C5.71119 27.6272 5.92667 27.8027 6.17868 27.9047C6.42253 28.003 6.69035 28.0256 6.94723 27.9695C7.2041 27.9134 7.43809 27.7811 7.61868 27.59L13.6173 21.3333H27.9993C28.8831 21.3323 29.7303 20.9807 30.3552 20.3559C30.9801 19.731 31.3316 18.8837 31.3327 18V3.33333C31.3316 2.4496 30.9801 1.60237 30.3552 0.97748C29.7303 0.352588 28.8831 0.00105857 27.9993 0ZM29.9993 18C29.9988 18.5303 29.7879 19.0387 29.413 19.4136C29.038 19.7886 28.5296 19.9995 27.9993 20H13.3327C13.2428 20 13.1537 20.0182 13.071 20.0535C12.9883 20.0888 12.9136 20.1404 12.8513 20.2053L6.66602 26.6367V20.6667C6.66602 20.4899 6.59578 20.3203 6.47075 20.1953C6.34573 20.0702 6.17616 20 5.99935 20H3.99935C3.46908 19.9995 2.96068 19.7886 2.58572 19.4136C2.21076 19.0387 1.99988 18.5303 1.99935 18V3.33333C1.99988 2.80306 2.21076 2.29466 2.58572 1.9197C2.96068 1.54475 3.46908 1.33386 3.99935 1.33333H27.9993C28.5296 1.33386 29.038 1.54475 29.413 1.9197C29.7879 2.29466 29.9988 2.80306 29.9993 3.33333V18ZM7.33268 6.66667C7.33268 6.48986 7.40292 6.32029 7.52794 6.19526C7.65297 6.07024 7.82254 6 7.99935 6H14.666C14.8428 6 15.0124 6.07024 15.1374 6.19526C15.2624 6.32029 15.3327 6.48986 15.3327 6.66667C15.3327 6.84348 15.2624 7.01305 15.1374 7.13807C15.0124 7.2631 14.8428 7.33333 14.666 7.33333H7.99935C7.82254 7.33333 7.65297 7.2631 7.52794 7.13807C7.40292 7.01305 7.33268 6.84348 7.33268 6.66667ZM21.9993 14.6667C21.9993 14.8435 21.9291 15.013 21.8041 15.1381C21.6791 15.2631 21.5095 15.3333 21.3327 15.3333H7.99935C7.82254 15.3333 7.65297 15.2631 7.52794 15.1381C7.40292 15.013 7.33268 14.8435 7.33268 14.6667C7.33268 14.4899 7.40292 14.3203 7.52794 14.1953C7.65297 14.0702 7.82254 14 7.99935 14H21.3327C21.5095 14 21.6791 14.0702 21.8041 14.1953C21.9291 14.3203 21.9993 14.4899 21.9993 14.6667ZM24.666 10.6667C24.666 10.8435 24.5958 11.013 24.4708 11.1381C24.3457 11.2631 24.1762 11.3333 23.9993 11.3333H7.99935C7.82254 11.3333 7.65297 11.2631 7.52794 11.1381C7.40292 11.013 7.33268 10.8435 7.33268 10.6667C7.33268 10.4899 7.40292 10.3203 7.52794 10.1953C7.65297 10.0702 7.82254 10 7.99935 10H23.9993C24.1762 10 24.3457 10.0702 24.4708 10.1953C24.5958 10.3203 24.666 10.4899 24.666 10.6667Z" fill="black"/>
</svg>
