<svg width="32" height="32" viewBox="0 0 32 32" fill="none" xmlns="http://www.w3.org/2000/svg">
    <path d="M21.3673 14.6018C18.2745 12.7655 13.1038 12.5722 10.156 13.4904C9.6727 13.6353 9.18945 13.3454 9.04448 12.9105C8.8995 12.4272 9.18945 11.944 9.62437 11.799C13.0554 10.7842 18.7095 10.9775 22.2855 13.1038C22.7204 13.3454 22.8654 13.9253 22.6238 14.3602C22.3822 14.6985 21.8023 14.8435 21.3673 14.6018ZM21.2707 17.308C21.0291 17.6463 20.5941 17.7913 20.2559 17.5497C17.6463 15.9549 13.6837 15.4717 10.6392 16.4382C10.2526 16.5349 9.81767 16.3415 9.72102 15.955C9.62437 15.5683 9.81767 15.1334 10.2043 15.0368C13.732 13.9736 18.0813 14.5052 21.0774 16.3415C21.3674 16.4865 21.5123 16.9698 21.2707 17.308ZM20.1109 19.9659C19.9176 20.2559 19.5793 20.3525 19.2894 20.1592C17.0181 18.7578 14.1669 18.4678 10.7842 19.241C10.4459 19.3377 10.1559 19.0961 10.0593 18.8061C9.96265 18.4678 10.2043 18.1779 10.4942 18.0813C14.1669 17.2597 17.3564 17.598 19.8693 19.1444C20.2076 19.2894 20.2559 19.676 20.1109 19.9659ZM15.665 6C14.3958 6 13.139 6.24999 11.9664 6.7357C10.7938 7.22142 9.72829 7.93333 8.83081 8.83081C7.01827 10.6434 6 13.1017 6 15.665C6 18.2283 7.01827 20.6866 8.83081 22.4992C9.72829 23.3967 10.7938 24.1086 11.9664 24.5943C13.139 25.08 14.3958 25.33 15.665 25.33C18.2283 25.33 20.6866 24.3117 22.4992 22.4992C24.3117 20.6866 25.33 18.2283 25.33 15.665C25.33 14.3958 25.08 13.139 24.5943 11.9664C24.1086 10.7938 23.3967 9.72829 22.4992 8.83081C21.6017 7.93333 20.5362 7.22142 19.3636 6.7357C18.191 6.24999 16.9342 6 15.665 6Z" fill="#101828"/>
</svg>
