<svg width="32" height="32" viewBox="0 0 32 32" fill="none" xmlns="http://www.w3.org/2000/svg">
<path d="M11.995 23.6309C12.4156 24.1627 12.9515 24.592 13.5623 24.8863C14.1731 25.1807 14.8428 25.3324 15.5208 25.33C16.1988 25.3324 16.8685 25.1807 17.4793 24.8863C18.0901 24.592 18.626 24.1627 19.0466 23.6309C16.7068 23.948 14.3349 23.948 11.995 23.6309ZM22.0447 12.7655V13.4459C22.0447 14.2626 22.2766 15.0609 22.7135 15.7404L23.7844 17.4057C24.7615 18.9269 24.0154 20.9943 22.3153 21.4746C17.873 22.733 13.1686 22.733 8.72633 21.4746C7.02626 20.9943 6.28012 18.9269 7.25725 17.4057L8.32813 15.7404C8.76651 15.0555 8.99898 14.2591 8.99791 13.4459V12.7655C8.99791 9.02901 11.9187 6 15.5208 6C19.123 6 22.0447 9.02901 22.0447 12.7655Z" fill="#101828"/>
</svg>
