<svg width="33" height="32" viewBox="0 0 33 32" fill="none" xmlns="http://www.w3.org/2000/svg">
<path d="M31.1641 9.59013C30.3081 7.63438 29.0869 5.89275 27.5346 4.41394C27.4869 4.36853 27.4308 4.33296 27.3694 4.30924C27.308 4.28553 27.2426 4.27415 27.1768 4.27575C27.111 4.27734 27.0462 4.29189 26.986 4.31855C26.9258 4.34521 26.8715 4.38346 26.8261 4.43113C26.7807 4.47876 26.7452 4.53487 26.7215 4.59624C26.6978 4.65762 26.6864 4.72307 26.688 4.78884C26.6896 4.85462 26.7041 4.91943 26.7308 4.97959C26.7574 5.03974 26.7957 5.09406 26.8433 5.13944C29.8448 7.99888 31.4979 11.8559 31.4979 16C31.4979 24.2699 24.7699 30.9979 16.4999 30.9979C8.23 30.9979 1.50206 24.2699 1.50206 16C1.50206 7.73013 8.23013 1.00206 16.5 1.00206C19.521 1.00206 22.4331 1.89619 24.9214 3.58763C25.0313 3.66047 25.1655 3.68705 25.2949 3.66159C25.4243 3.63614 25.5384 3.56071 25.6125 3.45166C25.6867 3.34261 25.7148 3.20873 25.6909 3.07905C25.667 2.94938 25.5929 2.83436 25.4848 2.75894C22.8296 0.954063 19.7228 0 16.5 0C12.2262 0 8.20831 1.66425 5.18631 4.68631C2.16431 7.70831 0.5 11.7262 0.5 16C0.5 20.2738 2.16431 24.2917 5.18631 27.3137C8.20831 30.3358 12.2262 32 16.5 32C20.7738 32 24.7917 30.3358 27.8137 27.3137C30.8357 24.2917 32.5 20.2738 32.5 16C32.5 13.7717 32.0505 11.6151 31.1641 9.59013Z" fill="black"/>
<path d="M23.7705 6.78452L14.1345 11.2702C13.8837 11.387 13.775 11.6851 13.8918 11.936C14.0086 12.1868 14.3067 12.2956 14.5574 12.1788L20.5015 9.41165L17.6117 11.7511L10.98 17.1196L7.3528 15.5326L12.4357 13.1665C12.4953 13.1387 12.5489 13.0994 12.5934 13.0509C12.6379 13.0025 12.6724 12.9457 12.6949 12.8839C12.7175 12.822 12.7276 12.7564 12.7248 12.6906C12.722 12.6249 12.7062 12.5604 12.6784 12.5007C12.5617 12.2498 12.2635 12.141 12.0128 12.2579L6.54155 14.8049C6.39909 14.8714 6.27908 14.978 6.19613 15.1115C6.11319 15.2451 6.0709 15.3999 6.07442 15.5571C6.07815 15.711 6.12568 15.8607 6.21145 15.9885C6.29722 16.1164 6.41767 16.2171 6.55867 16.279L10.6088 18.0508L11.795 25.1679C11.868 25.608 12.4639 25.7333 12.7083 25.3601L16.073 20.2244L22.4362 23.1939C22.946 23.432 23.5527 23.0681 23.5856 22.5085L24.4821 7.26796C24.483 7.25384 24.483 7.23934 24.4827 7.22515C24.4727 6.87046 24.0917 6.63602 23.7705 6.78452ZM12.3759 22.5582L11.6006 17.9065L19.4987 11.5128L13.4538 18.2903C13.3987 18.3524 13.3597 18.4271 13.3403 18.5078L12.3759 22.5582ZM13.4403 22.4145L14.1728 19.3377L15.1555 19.7963L13.4403 22.4145ZM15.7104 18.9495L14.65 18.4546L19.8668 12.6055L19.1122 13.7573L15.7104 18.9495ZM22.602 22.1656L16.6279 19.3776L23.3715 9.0849L22.602 22.1656Z" fill="black"/>
</svg>
