<svg width="29" height="32" viewBox="0 0 29 32" fill="none" xmlns="http://www.w3.org/2000/svg">
<path d="M6.40628 13.7063C6.40003 13.6938 6.39378 13.6875 6.38753 13.675C6.21253 13.3688 5.81878 13.2813 5.52503 13.475C5.51878 13.475 5.51878 13.4813 5.51253 13.4813C5.23753 13.6625 5.16253 14.0313 5.33753 14.3063C5.34378 14.3125 5.35003 14.325 5.35628 14.3375C5.53753 14.625 5.91878 14.7125 6.20628 14.525C6.21253 14.525 6.21253 14.5188 6.21878 14.5188C6.48128 14.3438 6.56878 13.9875 6.40628 13.7063ZM16.9563 29.25C16.7438 29.0375 16.4125 29.0063 16.1625 29.1813C15.0563 29.9438 13.8 30.4438 12.4563 30.6438C12.0125 30.7063 11.5625 30.7438 11.1188 30.7438C8.74378 30.7438 6.50628 29.825 4.82503 28.1563C3.15003 26.4875 2.22503 24.2688 2.21878 21.9125C2.21878 19.8 3.00003 17.725 4.38128 16.1313C4.58753 15.8938 4.58753 15.5438 4.37503 15.3125L4.36878 15.3063C4.11878 15.0313 3.68128 15.0313 3.43753 15.3125C1.85628 17.1375 0.962533 19.5063 0.968783 21.9188C0.968783 24.6125 2.02503 27.1438 3.94378 29.05C5.86253 30.9563 8.40628 32.0063 11.1188 32.0063C11.625 32.0063 12.1438 31.9688 12.6438 31.8938C14.1813 31.6625 15.625 31.0938 16.8875 30.2188C17.2063 30 17.2375 29.55 16.9688 29.275C16.9625 29.2563 16.9625 29.25 16.9563 29.25ZM18.0438 27.45C18.025 27.4688 18.0125 27.4875 17.9938 27.5125C17.775 27.775 17.8188 28.1688 18.0875 28.3813C18.0938 28.3875 18.1 28.3938 18.1063 28.3938C18.3688 28.6063 18.75 28.5563 18.9625 28.3C18.9813 28.2813 18.9938 28.2625 19.0125 28.2375C19.2313 27.9625 19.1813 27.5625 18.9 27.3563C18.9 27.3563 18.8938 27.35 18.8875 27.35C18.625 27.15 18.25 27.1938 18.0438 27.45Z" fill="black"/>
<path d="M28.981 10.8875L28.9747 8.45625C28.9685 7.7875 28.356 7.78125 28.3497 7.78125C24.4747 7.78125 21.2872 4.625 21.256 0.74375C21.256 0.45 21.0372 0.14375 20.631 0.125H15.681C15.3372 0.125 15.056 0.40625 15.056 0.75V14.4125L15.0497 21.9C15.0497 23.5812 13.9685 25.0688 12.3622 25.6C11.8997 25.75 11.4185 25.8188 10.931 25.7938C8.8747 25.6938 7.2372 24.0062 7.20595 21.9562C7.19345 20.9062 7.5872 19.9188 8.3247 19.1688C9.06845 18.4125 10.0685 17.9937 11.131 17.9937C11.5497 17.9937 11.9685 18.0625 12.3685 18.1938C12.606 18.2688 12.8685 18.2 13.0372 18.0125C13.1372 17.8938 13.1872 17.7375 13.1872 17.5875V12.5437C13.1872 12.2375 12.9622 11.9688 12.656 11.925C12.1497 11.85 11.6372 11.8125 11.131 11.8125C10.0185 11.8125 8.94345 11.9875 7.9247 12.325C7.59345 12.4375 7.4372 12.8062 7.59345 13.1187V13.125C7.6122 13.1562 7.63095 13.1938 7.64345 13.225C7.76845 13.475 8.0622 13.5938 8.3247 13.5063C9.2122 13.2125 10.156 13.0625 11.1247 13.0625C11.3935 13.0625 11.6622 13.075 11.931 13.1V16.8125C11.6622 16.7687 11.3935 16.75 11.1247 16.75C9.7247 16.75 8.4122 17.3 7.43095 18.2938C6.45595 19.2812 5.93095 20.5875 5.9497 21.975C5.9872 24.6812 8.1497 26.9062 10.8622 27.0375C11.506 27.0688 12.1372 26.9813 12.7497 26.7812C14.8747 26.0812 16.2997 24.1187 16.2997 21.8937L16.306 14.4062V1.375H17.9372C18.6872 1.36875 19.5122 1.3625 20.0372 1.36875C20.1997 3.35625 21.0497 5.2 22.481 6.61875C23.906 8.03125 25.756 8.86875 27.7372 9.01875C27.7372 9.95625 27.7435 11.775 27.7497 12.7437C26.3435 12.675 24.9747 12.3625 23.6747 11.8125C22.7185 11.4125 21.8247 10.8875 21.006 10.2563C20.8185 10.1125 20.5622 10.0875 20.3497 10.1875C20.1372 10.2875 19.9997 10.5125 19.9997 10.75L20.0247 21.9438C20.0185 23.1875 19.756 24.3875 19.2622 25.4937C19.1372 25.7687 19.2372 26.0938 19.4872 26.2563C19.4935 26.2563 19.4935 26.2625 19.4997 26.2625C19.8185 26.4688 20.2497 26.3438 20.406 26C20.9685 24.7375 21.2685 23.3687 21.2747 21.9438L21.2372 11.9375C21.856 12.325 22.4997 12.6687 23.1747 12.95C24.8185 13.6438 26.5622 14 28.356 14C28.5247 14 28.6872 13.9375 28.806 13.8188C28.9247 13.7 28.9872 13.5437 28.9872 13.375L28.981 10.8875Z" fill="black"/>
</svg>
