<svg width="34" height="34" viewBox="0 0 34 34" fill="none" xmlns="http://www.w3.org/2000/svg">
<path d="M9.46409 9.98978C9.38785 9.99656 9.31436 10.0215 9.24979 10.0626C9.18515 10.1037 9.13133 10.1598 9.09288 10.2261L9.09273 10.2263C8.11854 11.917 8.57433 13.4288 9.15461 14.4214C9.07797 14.3987 8.99983 14.3854 8.92591 14.3883C8.83053 14.392 8.73393 14.4234 8.66199 14.5045C8.59148 14.584 8.55744 14.6972 8.55502 14.8383L8.55501 14.8384C8.52798 16.5092 9.2632 17.5334 10.0251 18.1421C9.85122 18.2524 9.75895 18.47 9.82368 18.6834L9.82374 18.6836C10.344 20.3858 11.5546 21.0709 12.4428 21.3446C11.6111 21.905 10.6277 22.1035 9.82425 22.1567C9.39617 22.185 9.02175 22.1719 8.75277 22.1514C8.61834 22.1412 8.51042 22.1291 8.43551 22.1194C8.39806 22.1146 8.36889 22.1104 8.3488 22.1073C8.32793 22.1041 8.31809 22.1024 8.31858 22.1025L8.31672 22.1021C7.82719 22.0159 7.54874 22.6487 7.94371 22.9501C10.0856 24.5849 13.3963 25.0921 16.0024 24.529L16.0024 24.529L16.0043 24.5286C20.1548 23.5452 22.302 21.1538 23.4062 18.8443C24.4841 16.5898 24.5666 14.4174 24.5617 13.7167C24.5731 13.7064 24.586 13.6947 24.6002 13.6819C24.7777 13.5216 25.1648 13.1718 25.5163 12.7524C25.7219 12.5072 25.9183 12.2346 26.0549 11.9581C26.1909 11.6828 26.2723 11.3938 26.234 11.1199L26.2279 11.0759L26.191 11.0509C26.0846 10.9789 25.9403 10.993 25.8127 11.0249C25.6778 11.0586 25.5256 11.1219 25.3767 11.1913C25.2721 11.2401 25.1655 11.2937 25.0654 11.344C25.0391 11.3572 25.0133 11.3702 24.9881 11.3828C25.1231 11.21 25.282 10.9935 25.4188 10.7709C25.5455 10.5646 25.6572 10.347 25.7112 10.1505C25.764 9.95876 25.7701 9.75425 25.6351 9.61182L25.5811 9.55494L25.513 9.59372C24.8879 9.9496 24.1606 10.2894 23.1739 10.3274C22.4271 9.63129 21.4649 9.25 20.4431 9.25C18.0059 9.25 16.1839 11.3985 16.4279 13.7682C14.6043 13.7012 13.0139 12.7796 11.8111 11.8605C11.2435 11.4269 10.765 10.9961 10.3899 10.6583C10.3598 10.6312 10.3302 10.6046 10.3014 10.5787C10.1088 10.4055 9.9441 10.2593 9.81284 10.1578C9.7473 10.1071 9.68699 10.0651 9.63347 10.0361C9.58398 10.0093 9.52386 9.98426 9.46409 9.98978ZM9.46409 9.98978C9.46417 9.98978 9.46424 9.98977 9.46432 9.98976L9.47313 10.0894L9.46372 9.98982C9.46384 9.98981 9.46396 9.98979 9.46409 9.98978ZM23.6035 13.5267L23.6084 13.5099C23.6405 13.4008 23.7289 13.2781 23.832 13.1589C23.9381 13.0363 24.0711 12.9049 24.2072 12.7774C24.3193 12.6724 24.435 12.5686 24.5408 12.4737C24.5635 12.4533 24.5857 12.4334 24.6074 12.4139C24.6185 12.404 24.6293 12.3942 24.64 12.3845C24.5097 12.411 24.3645 12.436 24.2249 12.447C24.0773 12.4587 23.9255 12.4561 23.7964 12.4192C23.6652 12.3816 23.547 12.305 23.4919 12.1639M23.6035 13.5267L17.4551 14.1225C16.9668 12.1758 18.3925 10.2025 20.4431 10.2025C21.2745 10.2025 22.0543 10.5344 22.6394 11.1377C22.7431 11.2447 22.9159 11.272 23.0846 11.2711C23.2606 11.2703 23.4656 11.2381 23.6666 11.1939C23.88 11.1469 24.094 11.0851 24.2723 11.0284C24.096 11.2166 23.8783 11.4298 23.6414 11.6157C23.5609 11.6789 23.5028 11.7663 23.4759 11.8651C23.449 11.9638 23.4546 12.0686 23.4919 12.1639M23.6035 13.5267L23.6046 13.5442M23.6035 13.5267L23.6046 13.5442M23.4919 12.1639L23.585 12.1275M23.4919 12.1639C23.4919 12.1639 23.4919 12.1639 23.4919 12.1639L23.585 12.1275M23.585 12.1275C23.5555 12.0522 23.5511 11.9694 23.5724 11.8914C23.5937 11.8134 23.6395 11.7443 23.7031 11.6944L24.7862 12.2507C24.3893 12.3399 23.721 12.4758 23.585 12.1275ZM23.6046 13.5442L23.6046 13.5443C23.606 13.5681 23.7289 15.5862 22.8303 17.8335C21.6295 20.8357 19.2647 22.7769 15.7942 23.5998C15.7036 23.6181 12.7975 24.2027 10.1097 23.0965C11.2884 22.9875 12.7732 22.5822 13.8546 21.3685C13.9806 21.2273 14.0092 21.0137 13.9332 20.8436L13.933 20.8432C13.8913 20.7507 13.8177 20.6879 13.7316 20.6428C13.647 20.5985 13.5445 20.5683 13.435 20.543C13.3534 20.5242 13.263 20.507 13.1685 20.4891C13.136 20.4829 13.1031 20.4766 13.0698 20.4702C12.9383 20.4446 12.7986 20.4155 12.6539 20.3756C12.1115 20.2258 11.4927 19.9237 11.0279 19.0855M23.6046 13.5442L11.0279 19.0855M11.0279 19.0855C11.2108 19.0856 11.4532 19.0733 11.6696 19.0213C11.8165 18.986 11.9621 18.93 12.0684 18.8382C12.1797 18.742 12.245 18.6084 12.2256 18.4369L12.2256 18.4369C12.2129 18.3246 12.1516 18.2382 12.07 18.1694C11.9903 18.1021 11.8851 18.0464 11.7705 17.9941C11.6904 17.9575 11.6051 17.922 11.5156 17.8848C11.3395 17.8117 11.1471 17.7317 10.945 17.6224C10.646 17.4607 10.342 17.2417 10.0902 16.9086C9.86159 16.6059 9.67291 16.2049 9.57307 15.6588C9.74529 15.7168 9.97307 15.776 10.1908 15.7917C10.3395 15.8024 10.4927 15.7935 10.6222 15.7429C10.756 15.6906 10.8648 15.5929 10.911 15.4349L10.911 15.4349C10.9428 15.3259 10.9112 15.2154 10.8596 15.1137C10.8075 15.0111 10.7265 14.9008 10.6339 14.7845C10.5841 14.7221 10.5306 14.6572 10.4746 14.5894C10.3177 14.3995 10.1417 14.1865 9.97804 13.9389C9.55742 13.3025 9.2332 12.4576 9.63815 11.3108C10.1734 11.8544 11.1106 12.7101 12.3215 13.4288C13.6202 14.1995 15.2403 14.8164 17.0207 14.7142L17.0208 14.7142C17.3183 14.6968 17.5279 14.4122 17.4551 14.1225L11.0279 19.0855ZM33.1 17C33.1 8.10852 25.8915 0.9 17 0.9C8.10852 0.9 0.9 8.10852 0.9 17C0.9 25.8915 8.10852 33.1 17 33.1C25.8915 33.1 33.1 25.8915 33.1 17ZM1.83813 17C1.83813 8.62648 8.62648 1.83813 17 1.83813C25.3735 1.83813 32.1619 8.62648 32.1619 17C32.1619 25.3735 25.3735 32.1619 17 32.1619C8.62648 32.1619 1.83813 25.3735 1.83813 17Z" fill="black" stroke="black" stroke-width="0.2"/>
</svg>
