<svg width="32" height="32" viewBox="0 0 32 32" fill="none" xmlns="http://www.w3.org/2000/svg">
<path d="M5.84781 22.7692H12.0017V25.8461C12.0017 25.9678 12.0378 26.0868 12.1054 26.188C12.173 26.2891 12.2691 26.368 12.3816 26.4146C12.494 26.4611 12.6177 26.4733 12.7371 26.4496C12.8564 26.4258 12.9661 26.3673 13.0521 26.2812L16.5641 22.7692H23.3863C23.5493 22.7692 23.7063 22.7046 23.8213 22.5889L27.8213 18.5889C27.8786 18.5319 27.924 18.464 27.955 18.3894C27.9859 18.3147 28.0018 18.2347 28.0017 18.1538V3.69229C28.0017 3.52908 27.9368 3.37255 27.8214 3.25715C27.706 3.14174 27.5495 3.0769 27.3863 3.0769H5.84781C5.6846 3.0769 5.52807 3.14174 5.41266 3.25715C5.29726 3.37255 5.23242 3.52908 5.23242 3.69229V22.1538C5.23242 22.317 5.29726 22.4736 5.41266 22.589C5.52807 22.7044 5.6846 22.7692 5.84781 22.7692ZM6.46319 4.30767H26.7709V17.8991L23.1315 21.5384H16.3093C16.2285 21.5384 16.1485 21.5542 16.0738 21.5852C15.9992 21.6161 15.9313 21.6615 15.8743 21.7188L13.2324 24.3606V22.1538C13.2324 21.9906 13.1676 21.8341 13.0522 21.7187C12.9368 21.6033 12.7802 21.5384 12.617 21.5384H6.46319V4.30767Z" fill="black"/>
<path d="M31.0778 2.70251e-08H3.07782C2.97025 -3.18486e-05 2.86455 0.0281343 2.77126 0.0816904C2.67797 0.135246 2.60035 0.212321 2.54613 0.305231L0.392286 3.99754C0.337502 4.09172 0.308627 4.19873 0.308594 4.30769V27.0769C0.308594 27.2401 0.373429 27.3967 0.488836 27.5121C0.604243 27.6275 0.760768 27.6923 0.923978 27.6923H7.69321V31.3846C7.69321 31.5478 7.75804 31.7044 7.87345 31.8198C7.98886 31.9352 8.14538 32 8.30859 32H12.6163C12.7683 32 12.9147 31.9434 13.028 31.8418L17.6391 27.6923H23.3855C23.54 27.6923 23.6889 27.6338 23.8021 27.5298L31.4944 20.4529C31.5571 20.3953 31.6071 20.3253 31.6413 20.2473C31.6755 20.1693 31.6932 20.0851 31.6932 20V0.615385C31.6932 0.452174 31.6284 0.295649 31.513 0.180242C31.3976 0.064835 31.241 2.70251e-08 31.0778 2.70251e-08ZM30.4624 19.7305L23.1455 26.4615H17.4027C17.2507 26.4615 17.1043 26.5182 16.9911 26.6197L12.38 30.7692H8.92398V27.0769C8.92398 26.9137 8.85914 26.7572 8.74374 26.6418C8.62833 26.5264 8.4718 26.4615 8.30859 26.4615H1.53936V4.47446L3.43106 1.23077H30.4624V19.7305Z" fill="black"/>
<path d="M13.2326 17.2308H15.6941C15.8573 17.2308 16.0138 17.1659 16.1293 17.0505C16.2447 16.9351 16.3095 16.7786 16.3095 16.6154V8.61538C16.3095 8.45217 16.2447 8.29565 16.1293 8.18024C16.0138 8.06484 15.8573 8 15.6941 8H13.2326C13.0694 8 12.9128 8.06484 12.7974 8.18024C12.682 8.29565 12.6172 8.45217 12.6172 8.61538V16.6154C12.6172 16.7786 12.682 16.9351 12.7974 17.0505C12.9128 17.1659 13.0694 17.2308 13.2326 17.2308ZM13.848 9.23077H15.0787V16H13.848V9.23077ZM19.3864 17.2308H21.848C22.0112 17.2308 22.1677 17.1659 22.2831 17.0505C22.3985 16.9351 22.4633 16.7786 22.4633 16.6154V8.61538C22.4633 8.45217 22.3985 8.29565 22.2831 8.18024C22.1677 8.06484 22.0112 8 21.848 8H19.3864C19.2232 8 19.0667 8.06484 18.9513 8.18024C18.8359 8.29565 18.771 8.45217 18.771 8.61538V16.6154C18.771 16.7786 18.8359 16.9351 18.9513 17.0505C19.0667 17.1659 19.2232 17.2308 19.3864 17.2308ZM20.0018 9.23077H21.2326V16H20.0018V9.23077Z" fill="black"/>
</svg>
