<svg width="32" height="32" viewBox="0 0 32 32" fill="none" xmlns="http://www.w3.org/2000/svg">
<path d="M16 0C7.17723 0 0 7.17723 0 16C0 19.0098 0.836308 21.9317 2.42277 24.4689C1.79077 26.6831 0.649231 30.8714 0.636923 30.9151C0.607796 31.0213 0.607856 31.1335 0.637096 31.2397C0.666336 31.346 0.723674 31.4424 0.803077 31.5188C0.964923 31.6745 1.19877 31.7298 1.41169 31.6646L7.75385 29.7138C10.2432 31.2123 13.0944 32.0027 16 32C24.8228 32 32 24.8228 32 16C32 7.17723 24.8228 0 16 0ZM16 30.7692C13.2292 30.772 10.5138 29.9932 8.16554 28.5225C8.09065 28.4756 8.00654 28.4454 7.91893 28.4339C7.83133 28.4225 7.74228 28.43 7.65785 28.456L2.12 30.1606C2.63166 28.2853 3.15228 26.4125 3.68185 24.5422C3.73108 24.3711 3.70338 24.1865 3.60677 24.0369C2.05233 21.645 1.22683 18.8527 1.23077 16C1.23077 7.85662 7.85662 1.23077 16 1.23077C24.1434 1.23077 30.7692 7.85662 30.7692 16C30.7692 24.1434 24.1434 30.7692 16 30.7692Z" fill="black"/>
<path d="M26.453 19.7698C25.317 19.1391 24.3497 18.5065 23.6438 18.0449C23.1047 17.6929 22.7152 17.4388 22.4297 17.2954C21.6315 16.8972 21.0266 17.1785 20.7964 17.4111C20.7678 17.4396 20.742 17.471 20.7195 17.5046C19.8906 18.7483 18.8081 19.9378 18.4912 20.0018C18.125 19.9446 16.4112 18.9705 14.7078 17.552C12.9687 16.1028 11.8746 14.7151 11.714 13.7698C12.8297 12.6215 13.2315 11.8991 13.2315 11.0769C13.2315 10.2295 11.2549 6.69168 10.8973 6.33415C10.5386 5.97599 9.73058 5.91999 8.4955 6.16615C8.37652 6.19024 8.2672 6.24864 8.18104 6.33415C8.0315 6.48368 4.53242 10.0511 6.19519 14.3748C8.02042 19.12 12.7053 24.6357 18.6783 25.5317C19.357 25.6332 19.9933 25.6837 20.589 25.6837C24.1029 25.6837 26.1767 23.9157 26.7607 20.4086C26.782 20.2834 26.7637 20.1546 26.7086 20.0402C26.6535 19.9258 26.5642 19.8313 26.453 19.7698ZM18.861 24.3145C12.5447 23.3674 8.56627 17.1095 7.34412 13.9329C6.13181 10.7821 8.3675 7.97292 8.92873 7.33784C9.38535 7.2603 9.86596 7.22768 10.0666 7.25907C10.4857 7.84184 11.9367 10.5834 12.0007 11.0769C12.0007 11.4 11.8955 11.8498 10.6426 13.1034C10.5853 13.1604 10.5399 13.2282 10.509 13.3029C10.478 13.3776 10.4622 13.4576 10.4623 13.5385C10.4623 16.7606 17.2586 21.2308 18.4623 21.2308C19.509 21.2308 20.874 19.4714 21.6512 18.3249C21.7314 18.3327 21.8091 18.357 21.8795 18.3963C22.101 18.5077 22.485 18.7581 22.9706 19.0757C23.6118 19.4948 24.4635 20.0511 25.469 20.6277C25.0124 22.8246 23.7361 25.0468 18.861 24.3145Z" fill="black"/>
</svg>
