<svg width="34" height="34" viewBox="0 0 34 34" fill="none" xmlns="http://www.w3.org/2000/svg">
<path d="M15.957 19.5037L15.9576 19.5033L19.4114 17.6096C19.8731 17.3564 19.929 16.679 19.4473 16.3986L19.4468 16.3982L15.9711 14.4064L15.9709 14.4062C15.7341 14.2715 15.4841 14.2925 15.2942 14.4155C15.1063 14.5373 14.9814 14.756 14.9814 15.0087V18.8931C14.9814 19.1465 15.1046 19.363 15.2903 19.4844C15.4774 19.6067 15.7236 19.6294 15.957 19.5037ZM33.077 16.9944C33.077 8.10602 25.871 0.9 16.9827 0.9C8.0943 0.9 0.888281 8.10602 0.888281 16.9944C0.888281 25.8827 8.0943 33.0887 16.9827 33.0887C25.871 33.0887 33.077 25.8827 33.077 16.9944ZM15.9195 15.4564L18.5932 16.9893L15.9195 18.4555V15.4564ZM21.3083 12.1006C22.8918 12.1006 24.1745 13.384 24.1745 14.9675V19.0212C24.1745 20.6048 22.8918 21.8881 21.3083 21.8881H12.657C11.0741 21.8881 9.79078 20.6048 9.79078 19.0212V14.9675C9.79078 13.384 11.0741 12.1006 12.657 12.1006H21.3083ZM25.1127 19.0212V14.9675C25.1127 12.866 23.4098 11.1625 21.3083 11.1625H12.657C10.5562 11.1625 8.85266 12.866 8.85266 14.9675V19.0212C8.85266 21.1227 10.5562 22.8263 12.657 22.8263H21.3083C23.4098 22.8263 25.1127 21.1227 25.1127 19.0212ZM1.82641 16.9944C1.82641 8.62398 8.61225 1.83875 16.9827 1.83875C25.3531 1.83875 32.1389 8.62398 32.1389 16.9944C32.1389 25.3648 25.3531 32.15 16.9827 32.15C8.61225 32.15 1.82641 25.3648 1.82641 16.9944Z" fill="black" stroke="black" stroke-width="0.2"/>
</svg>
